<svg width="564" height="441" viewBox="0 0 564 441" fill="none" xmlns="http://www.w3.org/2000/svg">
<path d="M507.187 395.333H469.85V395.615H507.187V395.333Z" fill="#EBEBEB"/>
<path d="M373.395 398.4H363.599V398.681H373.395V398.4Z" fill="#EBEBEB"/>
<path d="M468.723 384.872H447.089V385.153H468.723V384.872Z" fill="#EBEBEB"/>
<path d="M107.83 386.766H59.14V387.047H107.83V386.766Z" fill="#EBEBEB"/>
<path d="M125.01 386.766H117.874V387.047H125.01V386.766Z" fill="#EBEBEB"/>
<path d="M253.819 391.523H148.211V391.805H253.819V391.523Z" fill="#EBEBEB"/>
<path d="M563.667 377.194H0.00012207V377.476H563.667V377.194Z" fill="#EBEBEB"/>
<path d="M396.291 207.677H480.875V123.094L396.291 123.094V207.677Z" fill="#F0F0F0"/>
<path d="M409.639 199.515H467.528C470.392 199.515 472.714 197.194 472.714 194.33V136.441C472.714 133.577 470.392 131.255 467.528 131.255H409.639C406.775 131.255 404.453 133.577 404.453 136.441V194.33C404.453 197.194 406.775 199.515 409.639 199.515Z" fill="#FAFAFA"/>
<path d="M452.681 131.255C452.434 132.407 451.801 133.44 450.886 134.182C449.972 134.924 448.831 135.332 447.653 135.336H429.514C428.338 135.331 427.198 134.923 426.286 134.181C425.373 133.439 424.742 132.406 424.497 131.255H452.681Z" fill="#E0E0E0"/>
<path d="M396.291 292.272H480.875V207.689H396.291V292.272Z" fill="#F5F5F5"/>
<path d="M409.639 284.111H467.528C470.392 284.111 472.714 281.789 472.714 278.925V221.036C472.714 218.172 470.392 215.851 467.528 215.851H409.639C406.775 215.851 404.453 218.172 404.453 221.036V278.925C404.453 281.789 406.775 284.111 409.639 284.111Z" fill="#EBEBEB"/>
<path d="M452.681 215.839C452.434 216.991 451.801 218.024 450.886 218.766C449.972 219.508 448.831 219.915 447.653 219.92H429.514C428.338 219.915 427.198 219.507 426.286 218.765C425.373 218.022 424.742 216.99 424.497 215.839H452.681Z" fill="#E0E0E0"/>
<path d="M396.291 376.845H480.875V292.261H396.291V376.845Z" fill="#F0F0F0"/>
<path d="M409.639 368.683H467.528C470.392 368.683 472.714 366.361 472.714 363.497V305.609C472.714 302.745 470.392 300.423 467.528 300.423H409.639C406.775 300.423 404.453 302.745 404.453 305.609V363.497C404.453 366.361 406.775 368.683 409.639 368.683Z" fill="#FAFAFA"/>
<path d="M452.681 300.434C452.432 301.584 451.797 302.614 450.883 303.354C449.969 304.094 448.829 304.5 447.653 304.504H429.514C428.339 304.501 427.2 304.096 426.287 303.356C425.374 302.615 424.742 301.584 424.497 300.434H452.681Z" fill="#E0E0E0"/>
<path d="M385.943 376.856H396.303L396.303 123.387H385.943L385.943 376.856Z" fill="#E6E6E6"/>
<path d="M164.591 180.79C198.112 180.79 225.286 153.616 225.286 120.095C225.286 86.5736 198.112 59.3992 164.591 59.3992C131.069 59.3992 103.895 86.5736 103.895 120.095C103.895 153.616 131.069 180.79 164.591 180.79Z" fill="#F5F5F5"/>
<path d="M164.591 171.569C193.019 171.569 216.065 148.523 216.065 120.095C216.065 91.6665 193.019 68.6208 164.591 68.6208C136.162 68.6208 113.117 91.6665 113.117 120.095C113.117 148.523 136.162 171.569 164.591 171.569Z" fill="#FAFAFA"/>
<path d="M164.591 68.6208C163.779 68.6208 162.979 68.6208 162.178 68.6884C175.377 69.3368 187.82 75.0365 196.932 84.607C206.044 94.1776 211.127 106.886 211.127 120.1C211.127 133.315 206.044 146.023 196.932 155.594C187.82 165.164 175.377 170.864 162.178 171.512C162.979 171.512 163.779 171.569 164.591 171.569C178.242 171.569 191.335 166.146 200.988 156.492C210.642 146.839 216.065 133.747 216.065 120.095C216.065 106.443 210.642 93.3504 200.988 83.6972C191.335 74.0439 178.242 68.6208 164.591 68.6208Z" fill="#E6E6E6"/>
<path d="M164.591 171.569C165.898 171.569 167.183 171.389 168.457 171.231V123.962H213.494C213.584 122.688 213.652 121.403 213.652 120.095C213.652 118.787 213.584 117.513 213.494 116.228H168.457V68.9816C167.183 68.8237 165.898 68.6997 164.591 68.6434H160.724V116.183H113.173V123.917H160.724V171.569H164.591Z" fill="#F0F0F0"/>
<path d="M160.724 68.6884H156.857V116.239H160.724V68.6884Z" fill="#E6E6E6"/>
<path d="M160.724 123.962H156.857V171.513H160.724V123.962Z" fill="#E6E6E6"/>
<path d="M92.9486 362.28H301.652V249.964L92.9486 249.964V362.28Z" fill="#E6E6E6"/>
<path d="M284.911 376.845H298.033V366.936H284.911V376.845Z" fill="#E6E6E6"/>
<path d="M77.0082 376.845H90.1304L90.1304 241.599H77.0082L77.0082 376.845Z" fill="#E6E6E6"/>
<g filter="url(#filter0_d_5_260)">
<path d="M89.9727 241.61V376.89H96.9509V369.314H298.033V376.89H305.034V241.61H89.9727ZM96.9509 253.864H193.98V300.829H96.9509V253.864ZM298.011 357.049H201.004V253.864H298.033L298.011 357.049ZM96.9509 357.038V307.818H193.98V357.038H96.9509Z" fill="#F0F0F0"/>
</g>
<g filter="url(#filter1_d_5_260)">
<path d="M200.992 357.026H291.472V258.892H200.992V357.026Z" fill="#F5F5F5"/>
</g>
<path d="M205.096 305.023C205.096 305.854 205.342 306.667 205.805 307.359C206.267 308.05 206.923 308.589 207.692 308.907C208.46 309.226 209.305 309.309 210.121 309.147C210.937 308.984 211.686 308.584 212.274 307.996C212.862 307.408 213.263 306.659 213.425 305.843C213.587 305.027 213.504 304.182 213.186 303.413C212.867 302.645 212.328 301.988 211.637 301.526C210.945 301.064 210.132 300.818 209.301 300.818C208.186 300.818 207.116 301.261 206.327 302.049C205.539 302.838 205.096 303.907 205.096 305.023Z" fill="#FAFAFA"/>
<path d="M209.301 309.228C210.105 309.229 210.893 308.998 211.569 308.562C212.245 308.126 212.781 307.503 213.111 306.77C213.41 307.411 213.543 308.117 213.497 308.822C213.451 309.528 213.227 310.211 212.848 310.807C212.468 311.404 211.944 311.895 211.324 312.235C210.704 312.575 210.008 312.753 209.301 312.753C208.594 312.753 207.898 312.575 207.278 312.235C206.658 311.895 206.134 311.404 205.754 310.807C205.374 310.211 205.151 309.528 205.105 308.822C205.059 308.117 205.191 307.411 205.49 306.77C205.822 307.503 206.358 308.124 207.034 308.56C207.709 308.996 208.497 309.228 209.301 309.228Z" fill="#E0E0E0"/>
<path d="M256.389 357.038H234.801L224.486 258.903H246.074L256.389 357.038Z" fill="#FAFAFA"/>
<path d="M229.277 357.038H224.982L214.667 258.903H218.962L229.277 357.038Z" fill="#FAFAFA"/>
<path d="M172.133 300.773H180.678V258.802H172.133V300.773Z" fill="#FAFAFA"/>
<path d="M136.689 300.773H145.234V258.802H136.689V300.773Z" fill="#F5F5F5"/>
<path d="M163.599 300.773H172.144V261.744H163.599V300.773Z" fill="#F5F5F5"/>
<path d="M145.245 300.773H153.791V261.744H145.245V300.773Z" fill="#FAFAFA"/>
<path d="M153.791 300.773H159.315V258.802H153.791V300.773Z" fill="#EBEBEB"/>
<path d="M159.315 300.773H163.587V261.744H159.315V300.773Z" fill="#FAFAFA"/>
<path d="M128.144 300.773H136.689V258.802H128.144V300.773Z" fill="#EBEBEB"/>
<path d="M119.588 300.773H128.133V261.744H119.588V300.773Z" fill="#E6E6E6"/>
<path d="M101.246 300.773H109.791V261.744H101.246V300.773Z" fill="#E6E6E6"/>
<path d="M109.78 300.773H115.304V258.802H109.78V300.773Z" fill="#FAFAFA"/>
<path d="M115.315 300.773H119.588V261.744H115.315V300.773Z" fill="#EBEBEB"/>
<path d="M96.962 300.784H101.235V259.805H96.962V300.784Z" fill="#EBEBEB"/>
<path d="M105.507 315.056H96.9619V357.026H105.507V315.056Z" fill="#EBEBEB"/>
<path d="M140.962 315.056H132.417V357.026H140.962V315.056Z" fill="#FAFAFA"/>
<path d="M114.052 318.01H105.507V357.038H114.052V318.01Z" fill="#FAFAFA"/>
<path d="M132.405 318.01H123.86V357.038H132.405V318.01Z" fill="#EBEBEB"/>
<path d="M123.86 315.056H118.336V357.026H123.86V315.056Z" fill="#FAFAFA"/>
<path d="M118.336 318.01H114.064V357.038H118.336V318.01Z" fill="#F5F5F5"/>
<path d="M149.507 315.056H140.962V357.026H149.507V315.056Z" fill="#EBEBEB"/>
<path d="M158.052 318.01H149.507V357.038H158.052V318.01Z" fill="#F5F5F5"/>
<path d="M176.405 318.01H167.86V357.038H176.405V318.01Z" fill="#E6E6E6"/>
<path d="M167.86 315.056H162.336V357.026H167.86V315.056Z" fill="#FAFAFA"/>
<path d="M186.213 315.056H180.689V357.026H186.213V315.056Z" fill="#FAFAFA"/>
<path d="M162.336 318.01H158.063V357.038H162.336V318.01Z" fill="#EBEBEB"/>
<path d="M180.689 316.059H176.416V357.038H180.689V316.059Z" fill="#EBEBEB"/>
<g filter="url(#filter2_d_5_260)">
<path d="M276.4 427C412.39 427 522.632 420.56 522.632 412.615C522.632 404.671 412.39 398.23 276.4 398.23C140.409 398.23 30.1675 404.671 30.1675 412.615C30.1675 420.56 140.409 427 276.4 427Z" fill="#F5F5F5"/>
</g>
<path d="M275.069 44.2478C275.069 44.2478 292.453 31.0129 323.871 31.0129C356.418 31.0129 372.651 44.2478 372.651 44.2478L372.978 30.7198L360.747 10.0107C360.747 10.0107 348.47 0 323.86 0C300.107 0 286.963 10.0107 286.963 10.0107L275.453 28.623L275.069 44.2478Z" fill="#277BC0"/>
<path opacity="0.2" d="M275.069 44.2478C275.069 44.2478 292.453 31.0129 323.871 31.0129C356.418 31.0129 372.651 44.2478 372.651 44.2478L372.978 30.7198L360.747 10.0107C360.747 10.0107 348.47 0 323.86 0C300.107 0 286.963 10.0107 286.963 10.0107L275.453 28.623L275.069 44.2478Z" fill="#FF0004"/>
<path d="M277.685 39.513C277.682 38.2305 278.088 36.9805 278.844 35.9445C279.601 34.9086 280.667 34.1407 281.89 33.7523C282.257 37.7505 283.012 41.7034 284.144 45.5555H283.784C282.985 45.563 282.194 45.4122 281.454 45.1119C280.714 44.8115 280.041 44.3676 279.474 43.8058C278.907 43.2439 278.457 42.5753 278.15 41.8385C277.843 41.1017 277.685 40.3113 277.685 39.513Z" fill="#277BC0"/>
<path d="M287.605 55.4535H286.76V53.3567C287.03 54.0331 287.301 54.7207 287.605 55.4535Z" fill="#277BC0"/>
<path d="M336.148 131.075C335.354 131.077 334.567 130.921 333.832 130.618C333.098 130.315 332.431 129.87 331.868 129.309C331.306 128.748 330.86 128.081 330.556 127.347C330.251 126.614 330.095 125.827 330.095 125.033V121.448H319.689V111.595H316.657C315.051 111.595 313.511 110.957 312.376 109.822C311.241 108.686 310.603 107.146 310.603 105.541C310.603 103.935 311.241 102.396 312.376 101.26C313.511 100.125 315.051 99.4872 316.657 99.4872H317.209C325.653 109.802 333.713 119.339 341.413 127.997C340.887 128.931 340.122 129.708 339.197 130.249C338.272 130.79 337.22 131.075 336.148 131.075Z" fill="#277BC0"/>
<path d="M309.273 89.7019V91.5282C309.273 93.1337 308.635 94.6735 307.499 95.8088C306.364 96.9441 304.824 97.5819 303.219 97.5819C301.613 97.5819 300.073 96.9441 298.938 95.8088C297.803 94.6735 297.165 93.1337 297.165 91.5282V88.3265H286.76V55.4535H287.605C291.562 64.8104 297.92 75.5989 307.739 87.8418L309.273 89.7019Z" fill="#277BC0"/>
<path opacity="0.2" d="M309.273 89.7019V91.5282C309.273 93.1337 308.635 94.6735 307.499 95.8088C306.364 96.9441 304.824 97.5819 303.219 97.5819C301.613 97.5819 300.073 96.9441 298.938 95.8088C297.803 94.6735 297.165 93.1337 297.165 91.5282V88.3265H286.76V55.4535H287.605C291.562 64.8104 297.92 75.5989 307.739 87.8418L309.273 89.7019Z" fill="#0900FF"/>
<path d="M286.76 10.2136C284.371 13.8575 282.83 17.9912 282.25 22.3099H277.595C280.142 17.903 283.216 13.8222 286.749 10.1573L286.76 10.2136Z" fill="#277BC0"/>
<path d="M276.343 24.5195V25.5116C276.344 26.5834 276.06 27.6362 275.519 28.5615C274.978 29.4868 274.2 30.2513 273.266 30.7762C274.258 28.5215 275.295 26.4247 276.343 24.5195Z" fill="#277BC0"/>
<path d="M276.343 25.5115V24.5195C276.726 23.8205 277.121 23.1441 277.47 22.4903H282.205C281.628 26.2196 281.51 30.0057 281.856 33.7636C280.478 34.1997 279.303 35.1149 278.542 36.3433C277.781 37.5717 277.486 39.032 277.71 40.4594C277.933 41.8869 278.661 43.1869 279.761 44.1239C280.861 45.0609 282.26 45.5728 283.705 45.5668H284.088C284.84 48.2112 285.728 50.815 286.748 53.3679V55.4535H276.332V59.0384C276.332 60.132 276.035 61.205 275.474 62.1437C274.913 63.0823 274.109 63.8515 273.145 64.3694C272.182 64.8874 271.097 65.1348 270.005 65.0854C268.912 65.036 267.854 64.6917 266.941 64.0889C266.544 52.6681 268.7 41.3025 273.254 30.8213C274.198 30.2941 274.982 29.5232 275.525 28.5891C276.069 27.6551 276.351 26.5921 276.343 25.5115Z" fill="#277BC0"/>
<path opacity="0.2" d="M276.343 25.5115V24.5195C276.726 23.8205 277.121 23.1441 277.47 22.4903H282.205C281.628 26.2196 281.51 30.0057 281.856 33.7636C280.478 34.1997 279.303 35.1149 278.542 36.3433C277.781 37.5717 277.486 39.032 277.71 40.4594C277.933 41.8869 278.661 43.1869 279.761 44.1239C280.861 45.0609 282.26 45.5728 283.705 45.5668H284.088C284.84 48.2112 285.728 50.815 286.748 53.3679V55.4535H276.332V59.0384C276.332 60.132 276.035 61.205 275.474 62.1437C274.913 63.0823 274.109 63.8515 273.145 64.3694C272.182 64.8874 271.097 65.1348 270.005 65.0854C268.912 65.036 267.854 64.6916 266.941 64.0889C266.544 52.6681 268.7 41.3025 273.254 30.8213C274.198 30.2941 274.982 29.5232 275.525 28.5891C276.069 27.6551 276.351 26.5921 276.343 25.5115Z" fill="#0900FF"/>
<path d="M270.301 65.0471C271.095 65.0471 271.882 64.8904 272.616 64.5861C273.349 64.2817 274.016 63.8356 274.577 63.2733C275.139 62.711 275.583 62.0436 275.886 61.3091C276.189 60.5747 276.345 59.7878 276.343 58.9933V55.4535H286.76V88.3829H276.343V91.5281C276.341 92.4302 276.138 93.3204 275.748 94.1338C275.358 94.9471 274.791 95.663 274.089 96.2291C269.804 86.009 267.379 75.1054 266.93 64.0325C267.928 64.6965 269.101 65.0496 270.301 65.0471Z" fill="#277BC0"/>
<path opacity="0.6" d="M270.301 65.0471C271.095 65.0471 271.882 64.8904 272.616 64.5861C273.349 64.2817 274.016 63.8356 274.577 63.2733C275.139 62.711 275.583 62.0436 275.886 61.3091C276.189 60.5747 276.345 59.7878 276.343 58.9933V55.4535H286.76V88.3829H276.343V91.5281C276.341 92.4302 276.138 93.3204 275.748 94.1338C275.358 94.9471 274.791 95.663 274.089 96.2291C269.804 86.009 267.379 75.1054 266.93 64.0325C267.928 64.6965 269.101 65.0496 270.301 65.0471Z" fill="#FF0000"/>
<path d="M385.548 177.623H382.504C381.113 177.618 379.766 177.134 378.69 176.253C377.614 175.372 376.874 174.147 376.595 172.784C376.316 171.421 376.514 170.004 377.157 168.77C377.8 167.537 378.848 166.563 380.126 166.011C393.293 176.428 405.231 182.527 416.2 183.507L413.145 187.476H408.095V191.06C408.095 192.666 407.457 194.206 406.322 195.341C405.186 196.476 403.646 197.114 402.041 197.114C400.435 197.114 398.895 196.476 397.76 195.341C396.625 194.206 395.987 192.666 395.987 191.06V187.476H385.548V177.623Z" fill="#277BC0"/>
<path opacity="0.5" d="M385.548 177.623H382.504C381.113 177.618 379.766 177.134 378.69 176.253C377.614 175.372 376.874 174.147 376.595 172.784C376.316 171.421 376.514 170.004 377.157 168.77C377.8 167.537 378.848 166.563 380.126 166.011C393.293 176.428 405.231 182.527 416.2 183.507L413.145 187.476H408.095V191.06C408.095 192.666 407.457 194.206 406.322 195.341C405.186 196.476 403.646 197.114 402.041 197.114C400.435 197.114 398.895 196.476 397.76 195.341C396.625 194.206 395.987 192.666 395.987 191.06V187.476H385.548V177.623Z" fill="#F7FF00"/>
<path d="M374.072 160.983C373.343 162.047 372.294 162.85 371.077 163.276C369.86 163.702 368.538 163.728 367.305 163.35C366.073 162.973 364.992 162.212 364.222 161.178C363.452 160.144 363.032 158.891 363.024 157.601V154.388H352.607V140.229C360.104 148.143 367.251 155.099 374.072 160.983Z" fill="#277BC0"/>
<path opacity="0.5" d="M374.072 160.983C373.343 162.047 372.294 162.85 371.077 163.276C369.86 163.702 368.538 163.728 367.305 163.35C366.073 162.973 364.992 162.212 364.222 161.178C363.452 160.144 363.032 158.891 363.024 157.601V154.388H352.607V140.229C360.104 148.143 367.251 155.099 374.072 160.983Z" fill="#FFEA00"/>
<path d="M330.095 157.579V154.366H319.689V144.141H316.657C315.051 144.141 313.511 143.503 312.376 142.368C311.241 141.232 310.603 139.693 310.603 138.087C310.603 136.481 311.241 134.942 312.376 133.806C313.511 132.671 315.051 132.033 316.657 132.033H319.689V121.448H330.095V125.033C330.116 126.353 330.569 127.629 331.384 128.668C332.199 129.707 333.331 130.451 334.608 130.787C335.884 131.123 337.236 131.032 338.457 130.528C339.677 130.025 340.699 129.136 341.368 127.997C345.186 132.296 348.917 136.373 352.562 140.229V154.366H342.157V157.579C342.157 159.184 341.519 160.724 340.384 161.859C339.249 162.995 337.709 163.632 336.103 163.632C334.498 163.632 332.958 162.995 331.823 161.859C330.687 160.724 330.049 159.184 330.049 157.579H330.095Z" fill="#277BC0"/>
<path d="M330.095 157.579V154.366H319.689V144.141H316.657C315.051 144.141 313.511 143.503 312.376 142.368C311.241 141.232 310.603 139.693 310.603 138.087C310.603 136.481 311.241 134.942 312.376 133.806C313.511 132.671 315.051 132.033 316.657 132.033H319.689V121.448H330.095V125.033C330.116 126.353 330.569 127.629 331.384 128.668C332.199 129.707 333.331 130.451 334.608 130.787C335.884 131.123 337.236 131.032 338.457 130.528C339.677 130.025 340.699 129.136 341.368 127.997C345.186 132.296 348.917 136.373 352.562 140.229V154.366H342.157V157.579C342.157 159.184 341.519 160.724 340.384 161.859C339.249 162.995 337.709 163.632 336.103 163.632C334.498 163.632 332.958 162.995 331.823 161.859C330.687 160.724 330.049 159.184 330.049 157.579H330.095Z" fill="#277BC0"/>
<path opacity="0.7" d="M330.095 157.579V154.366H319.689V144.141H316.657C315.051 144.141 313.511 143.503 312.376 142.368C311.241 141.232 310.603 139.693 310.603 138.087C310.603 136.481 311.241 134.942 312.376 133.806C313.511 132.671 315.051 132.033 316.657 132.033H319.689V121.448H330.095V125.033C330.116 126.353 330.569 127.629 331.384 128.668C332.199 129.707 333.331 130.451 334.608 130.787C335.884 131.123 337.236 131.032 338.457 130.528C339.677 130.025 340.699 129.136 341.368 127.997C345.186 132.296 348.917 136.373 352.562 140.229V154.366H342.157V157.579C342.157 159.184 341.519 160.724 340.384 161.859C339.249 162.995 337.709 163.632 336.103 163.632C334.498 163.632 332.958 162.995 331.823 161.859C330.687 160.724 330.049 159.184 330.049 157.579H330.095Z" fill="#51FF00"/>
<path d="M342.202 154.467V157.579C342.202 159.184 341.564 160.724 340.429 161.859C339.294 162.995 337.754 163.632 336.148 163.632C334.543 163.632 333.003 162.995 331.868 161.859C330.732 160.724 330.094 159.184 330.094 157.579V154.366H319.689V164.895C326.759 173.478 334.285 181.674 342.236 189.448V187.475H352.641V177.623H349.586C347.98 177.623 346.441 176.985 345.305 175.849C344.17 174.714 343.532 173.174 343.532 171.569C343.532 169.963 344.17 168.423 345.305 167.288C346.441 166.153 347.98 165.515 349.586 165.515H352.607V154.366H342.202V154.467Z" fill="#277BC0"/>
<g opacity="0.2">
<path d="M342.202 154.467V157.579C342.202 159.184 341.564 160.724 340.429 161.859C339.294 162.995 337.754 163.632 336.148 163.632C334.543 163.632 333.003 162.995 331.868 161.859C330.732 160.724 330.094 159.184 330.094 157.579V154.366H319.689V164.895C326.759 173.478 334.285 181.674 342.236 189.448V187.475H352.641V177.623H349.586C347.98 177.623 346.441 176.985 345.305 175.849C344.17 174.714 343.532 173.174 343.532 171.569C343.532 169.963 344.17 168.423 345.305 167.288C346.441 166.153 347.98 165.515 349.586 165.515H352.607V154.366H342.202V154.467Z" fill="#0015FF" style="mix-blend-mode:darken"/>
</g>
<path d="M319.689 154.546V164.895C316.984 161.637 314.21 158.199 311.381 154.546L311.245 154.366H319.689V154.546Z" fill="#277BC0"/>
<path d="M297.165 121.448V125.033C297.165 126.638 297.803 128.178 298.938 129.313C300.073 130.449 301.613 131.086 303.219 131.086C304.824 131.086 306.364 130.449 307.499 129.313C308.635 128.178 309.273 126.638 309.273 125.033V121.448H319.689V132.033H316.657C315.051 132.033 313.511 132.671 312.376 133.806C311.241 134.942 310.603 136.481 310.603 138.087C310.603 139.693 311.241 141.232 312.376 142.368C313.511 143.503 315.051 144.141 316.657 144.141H319.689V154.366H311.245C303.85 144.829 296.015 133.916 287.797 121.448H297.165Z" fill="#27C027"/>
<path d="M385.548 210.169H382.504C380.899 210.169 379.359 209.531 378.223 208.396C377.088 207.26 376.45 205.721 376.45 204.115C376.45 202.509 377.088 200.97 378.223 199.834C379.359 198.699 380.899 198.061 382.504 198.061H385.548V187.476H395.953V191.06C395.953 192.666 396.591 194.206 397.726 195.341C398.862 196.476 400.401 197.114 402.007 197.114C403.613 197.114 405.152 196.476 406.288 195.341C407.423 194.206 408.061 192.666 408.061 191.06V187.476H413.111L387.803 220.394C387.038 220.236 386.285 220.029 385.548 219.774V210.169Z" fill="#277BC0"/>
<path opacity="0.2" d="M385.548 210.169H382.504C380.899 210.169 379.359 209.531 378.223 208.396C377.088 207.26 376.45 205.721 376.45 204.115C376.45 202.509 377.088 200.97 378.223 199.834C379.359 198.699 380.899 198.061 382.504 198.061H385.548V187.476H395.953V191.06C395.953 192.666 396.591 194.206 397.726 195.341C398.862 196.476 400.401 197.114 402.007 197.114C403.613 197.114 405.152 196.476 406.288 195.341C407.423 194.206 408.061 192.666 408.061 191.06V187.476H413.111L387.803 220.394C387.038 220.236 386.285 220.029 385.548 219.774V210.169Z" fill="white"/>
<path d="M363.001 191.06C362.966 191.877 363.096 192.692 363.384 193.456C363.672 194.221 364.112 194.919 364.677 195.509C365.242 196.099 365.921 196.568 366.673 196.889C367.424 197.21 368.232 197.375 369.049 197.375C369.866 197.375 370.675 197.21 371.426 196.889C372.178 196.568 372.856 196.099 373.421 195.509C373.987 194.919 374.426 194.221 374.714 193.456C375.002 192.692 375.133 191.877 375.098 191.06V187.476H385.548V198.061H382.504C380.899 198.061 379.359 198.699 378.223 199.834C377.088 200.97 376.45 202.509 376.45 204.115C376.45 205.721 377.088 207.26 378.223 208.396C379.359 209.531 380.899 210.169 382.504 210.169H385.548V219.774C380.96 218.252 369.483 213.382 352.619 198.963V187.476H363.001V191.06Z" fill="#277BC0"/>
<path opacity="0.7" d="M363.001 191.06C362.966 191.877 363.096 192.692 363.384 193.456C363.672 194.221 364.112 194.919 364.677 195.509C365.242 196.099 365.921 196.568 366.673 196.889C367.424 197.21 368.232 197.375 369.049 197.375C369.866 197.375 370.675 197.21 371.426 196.889C372.178 196.568 372.856 196.099 373.421 195.509C373.987 194.919 374.426 194.221 374.714 193.456C375.002 192.692 375.133 191.877 375.098 191.06V187.476H385.548V198.061H382.504C380.899 198.061 379.359 198.699 378.223 199.834C377.088 200.97 376.45 202.509 376.45 204.115C376.45 205.721 377.088 207.26 378.223 208.396C379.359 209.531 380.899 210.169 382.504 210.169H385.548V219.774C380.96 218.252 369.483 213.382 352.619 198.963V187.476H363.001V191.06Z" fill="#246800"/>
<path d="M342.202 189.448V187.476H352.607V198.963C349.338 196.167 345.866 192.988 342.202 189.448Z" fill="#277BC0"/>
<path d="M352.607 154.546V165.515H349.586C347.981 165.515 346.441 166.153 345.305 167.288C344.17 168.423 343.532 169.963 343.532 171.569C343.532 173.174 344.17 174.714 345.305 175.849C346.441 176.985 347.981 177.623 349.586 177.623H352.607V187.475H363.001V191.06C362.966 191.877 363.096 192.692 363.385 193.456C363.673 194.221 364.112 194.919 364.677 195.509C365.243 196.099 365.921 196.568 366.673 196.889C367.424 197.21 368.233 197.375 369.05 197.375C369.866 197.375 370.675 197.21 371.426 196.889C372.178 196.568 372.856 196.099 373.422 195.509C373.987 194.919 374.426 194.221 374.715 193.456C375.003 192.692 375.133 191.877 375.098 191.06V187.475H385.548V177.623H382.504C381.113 177.618 379.766 177.134 378.69 176.253C377.614 175.371 376.874 174.146 376.595 172.784C376.316 171.421 376.514 170.004 377.157 168.77C377.8 167.537 378.849 166.562 380.126 166.011C378.141 164.433 376.112 162.753 374.072 160.983C373.343 162.047 372.294 162.85 371.077 163.276C369.86 163.702 368.538 163.728 367.306 163.35C366.073 162.973 364.992 162.212 364.222 161.178C363.452 160.144 363.032 158.891 363.024 157.601V154.388H352.607C352.607 154.388 352.574 154.546 352.607 154.546Z" fill="#277BC0"/>
<path opacity="0.4" d="M352.607 154.546V165.515H349.586C347.981 165.515 346.441 166.153 345.305 167.288C344.17 168.423 343.532 169.963 343.532 171.569C343.532 173.174 344.17 174.714 345.305 175.849C346.441 176.985 347.981 177.623 349.586 177.623H352.607V187.475H363.001V191.06C362.966 191.877 363.096 192.692 363.385 193.456C363.673 194.221 364.112 194.919 364.677 195.509C365.243 196.099 365.921 196.568 366.673 196.889C367.424 197.21 368.233 197.375 369.05 197.375C369.866 197.375 370.675 197.21 371.426 196.889C372.178 196.568 372.856 196.099 373.422 195.509C373.987 194.919 374.426 194.221 374.715 193.456C375.003 192.692 375.133 191.877 375.098 191.06V187.475H385.548V177.623H382.504C381.113 177.618 379.766 177.134 378.69 176.253C377.614 175.371 376.874 174.146 376.595 172.784C376.316 171.421 376.514 170.004 377.157 168.77C377.8 167.537 378.849 166.562 380.126 166.011C378.141 164.433 376.112 162.753 374.072 160.983C373.343 162.047 372.294 162.85 371.077 163.276C369.86 163.702 368.538 163.728 367.306 163.35C366.073 162.973 364.992 162.212 364.222 161.178C363.452 160.144 363.032 158.891 363.024 157.601V154.388H352.607C352.607 154.388 352.574 154.546 352.607 154.546Z" fill="#FF0000"/>
<path d="M297.165 88.5182V91.5282C297.165 93.1337 297.803 94.6735 298.938 95.8088C300.073 96.9441 301.613 97.5819 303.219 97.5819C304.824 97.5819 306.364 96.9441 307.499 95.8088C308.635 94.6735 309.272 93.1337 309.272 91.5282V89.6906C311.955 93.0275 314.586 96.2893 317.164 99.4759H316.611C315.006 99.4759 313.466 100.114 312.331 101.249C311.195 102.384 310.558 103.924 310.558 105.53C310.558 107.135 311.195 108.675 312.331 109.81C313.466 110.946 315.006 111.583 316.611 111.583H319.644V121.436H309.227V125.021C309.227 126.627 308.59 128.167 307.454 129.302C306.319 130.437 304.779 131.075 303.174 131.075C301.568 131.075 300.028 130.437 298.893 129.302C297.758 128.167 297.12 126.627 297.12 125.021V121.436H287.752L286.714 119.847V111.595H283.693C282.879 111.597 282.073 111.432 281.326 111.11C280.041 108.855 278.849 106.601 277.752 104.346C278.019 102.966 278.758 101.722 279.842 100.827C280.926 99.9323 282.288 99.4426 283.693 99.4421H286.714V88.2927H297.12L297.165 88.5182Z" fill="#277BC0"/>
<path opacity="0.5" d="M297.165 88.5182V91.5282C297.165 93.1337 297.803 94.6735 298.938 95.8088C300.073 96.9441 301.613 97.5819 303.219 97.5819C304.824 97.5819 306.364 96.9441 307.499 95.8088C308.635 94.6735 309.272 93.1337 309.272 91.5282V89.6906C311.955 93.0275 314.586 96.2893 317.164 99.4759H316.611C315.006 99.4759 313.466 100.114 312.331 101.249C311.195 102.384 310.558 103.924 310.558 105.53C310.558 107.135 311.195 108.675 312.331 109.81C313.466 110.946 315.006 111.583 316.611 111.583H319.644V121.436H309.227V125.021C309.227 126.627 308.59 128.167 307.454 129.302C306.319 130.437 304.779 131.075 303.174 131.075C301.568 131.075 300.028 130.437 298.893 129.302C297.758 128.167 297.12 126.627 297.12 125.021V121.436H287.752L286.714 119.847V111.595H283.693C282.879 111.597 282.073 111.432 281.326 111.11C280.041 108.855 278.849 106.601 277.752 104.346C278.019 102.966 278.758 101.722 279.842 100.827C280.926 99.9323 282.288 99.4426 283.693 99.4421H286.714V88.2927H297.12L297.165 88.5182Z" fill="#FFF700"/>
<path d="M286.76 111.595V119.858C286.523 119.509 286.298 119.159 286.072 118.798C284.37 116.205 282.814 113.635 281.371 111.11C282.119 111.432 282.925 111.597 283.739 111.595H286.76Z" fill="#277BC0"/>
<path d="M286.76 88.5182V99.4872H283.739C282.333 99.4877 280.971 99.9774 279.887 100.872C278.803 101.767 278.064 103.011 277.797 104.391C276.422 101.618 275.193 98.9009 274.111 96.2404C274.813 95.6743 275.38 94.9584 275.77 94.1451C276.161 93.3318 276.364 92.4415 276.366 91.5395V88.3378H286.782L286.76 88.5182Z" fill="#277BC0"/>
<g opacity="0.7">
<path d="M286.76 111.595V119.858C286.523 119.509 286.297 119.159 286.072 118.798C284.37 116.206 282.814 113.635 281.371 111.11C282.118 111.432 282.924 111.597 283.738 111.595H286.76Z" fill="white"/>
<path d="M286.76 88.5182V99.4872H283.739C282.333 99.4877 280.971 99.9774 279.887 100.872C278.803 101.767 278.064 103.011 277.797 104.391C276.422 101.618 275.193 98.9009 274.111 96.2404C274.813 95.6743 275.38 94.9584 275.77 94.1451C276.161 93.3318 276.364 92.4415 276.366 91.5395V88.3378H286.782L286.76 88.5182Z" fill="#048C08"/>
</g>
<path d="M369.934 39.513C369.937 38.2305 369.531 36.9805 368.775 35.9445C368.019 34.9086 366.952 34.1407 365.73 33.7523C365.362 37.7505 364.607 41.7034 363.475 45.5555H363.847C364.644 45.5615 365.435 45.4096 366.173 45.1086C366.911 44.8076 367.583 44.3634 368.149 43.8017C368.715 43.2401 369.164 42.5719 369.47 41.8359C369.777 41.0998 369.934 40.3103 369.934 39.513Z" fill="#277BC0"/>
<path d="M360.025 55.4535H360.859V53.3567C360.589 54.0331 360.318 54.7207 360.025 55.4535Z" fill="#277BC0"/>
<path d="M311.471 131.075C312.265 131.077 313.052 130.921 313.787 130.618C314.521 130.315 315.189 129.87 315.751 129.309C316.313 128.748 316.759 128.081 317.064 127.347C317.368 126.614 317.525 125.827 317.525 125.033V121.448H327.941V111.595H330.963C332.568 111.595 334.108 110.957 335.243 109.822C336.379 108.686 337.016 107.146 337.016 105.541C337.016 103.935 336.379 102.396 335.243 101.26C334.108 100.125 332.568 99.4872 330.963 99.4872H330.41C321.966 109.802 313.906 119.339 306.206 127.997C306.732 128.931 307.497 129.708 308.422 130.249C309.347 130.79 310.399 131.075 311.471 131.075Z" fill="#277BC0"/>
<path opacity="0.2" d="M311.471 131.075C312.265 131.077 313.052 130.921 313.787 130.618C314.521 130.315 315.189 129.87 315.751 129.309C316.313 128.748 316.759 128.081 317.064 127.347C317.368 126.614 317.525 125.827 317.525 125.033V121.448H327.941V111.595H330.963C332.568 111.595 334.108 110.957 335.243 109.822C336.379 108.686 337.016 107.146 337.016 105.541C337.016 103.935 336.379 102.396 335.243 101.26C334.108 100.125 332.568 99.4872 330.963 99.4872H330.41C321.966 109.802 313.906 119.339 306.206 127.997C306.732 128.931 307.497 129.708 308.422 130.249C309.347 130.79 310.399 131.075 311.471 131.075Z" fill="#FF0000"/>
<path d="M338.346 89.7019V91.5282C338.346 93.1337 338.984 94.6735 340.12 95.8088C341.255 96.9441 342.795 97.5819 344.4 97.5819C346.006 97.5819 347.546 96.9441 348.681 95.8088C349.816 94.6735 350.454 93.1337 350.454 91.5282V88.3265H360.859V55.4535H360.025C356.057 64.8104 349.71 75.5989 339.88 87.8418C339.327 88.4393 338.854 89.0706 338.346 89.7019Z" fill="#277BC0"/>
<path opacity="0.2" d="M338.346 89.7019V91.5282C338.346 93.1337 338.984 94.6735 340.12 95.8088C341.255 96.9441 342.795 97.5819 344.4 97.5819C346.006 97.5819 347.546 96.9441 348.681 95.8088C349.816 94.6735 350.454 93.1337 350.454 91.5282V88.3265H360.859V55.4535H360.025C356.057 64.8104 349.71 75.5989 339.88 87.8418C339.327 88.4393 338.854 89.0706 338.346 89.7019Z" fill="#000DFF"/>
<path d="M360.859 10.2136C363.254 13.8549 364.795 17.9898 365.369 22.3099H370.025C367.477 17.903 364.403 13.8222 360.871 10.1573L360.859 10.2136Z" fill="#277BC0"/>
<path d="M371.276 24.5195V25.5116C371.275 26.5834 371.559 27.6362 372.1 28.5615C372.641 29.4868 373.419 30.2513 374.354 30.7762C373.361 28.5215 372.324 26.4247 371.276 24.5195Z" fill="#277BC0"/>
<path d="M371.276 25.5115V24.5195C370.893 23.8205 370.509 23.1441 370.149 22.4903H365.425C365.993 26.2206 366.106 30.006 365.763 33.7636C367.14 34.1994 368.315 35.1137 369.075 36.3409C369.836 37.5681 370.132 39.0272 369.91 40.4538C369.688 41.8805 368.962 43.1805 367.865 44.1183C366.767 45.0562 365.37 45.5701 363.926 45.5668H363.554C362.801 48.2112 361.913 50.815 360.893 53.3679V55.4535H371.31V59.0384C371.31 60.132 371.606 61.205 372.167 62.1437C372.728 63.0823 373.533 63.8515 374.496 64.3694C375.459 64.8874 376.545 65.1348 377.637 65.0854C378.729 65.036 379.788 64.6917 380.7 64.0889C381.102 52.6677 378.945 41.3013 374.387 30.8213C373.44 30.2971 372.651 29.5274 372.103 28.5931C371.556 27.6589 371.27 26.5944 371.276 25.5115Z" fill="#277BC0"/>
<path opacity="0.5" d="M371.276 25.5115V24.5195C370.893 23.8205 370.509 23.1441 370.149 22.4903H365.425C365.993 26.2206 366.106 30.006 365.763 33.7636C367.14 34.1994 368.315 35.1137 369.075 36.3409C369.836 37.5681 370.132 39.0272 369.91 40.4538C369.688 41.8805 368.962 43.1805 367.865 44.1183C366.767 45.0562 365.37 45.5701 363.926 45.5668H363.554C362.801 48.2112 361.913 50.815 360.893 53.3679V55.4535H371.31V59.0384C371.31 60.132 371.606 61.205 372.167 62.1437C372.728 63.0823 373.533 63.8515 374.496 64.3694C375.459 64.8874 376.545 65.1348 377.637 65.0854C378.729 65.036 379.788 64.6917 380.7 64.0889C381.102 52.6677 378.945 41.3013 374.387 30.8213C373.44 30.2971 372.651 29.5274 372.103 28.5931C371.556 27.6589 371.27 26.5944 371.276 25.5115Z" fill="#FF0000"/>
<path d="M377.33 65.0471C376.534 65.0486 375.746 64.893 375.011 64.5893C374.276 64.2856 373.608 63.8397 373.046 63.2773C372.483 62.7149 372.037 62.0469 371.734 61.3118C371.43 60.5766 371.274 59.7887 371.276 58.9933V55.4535H360.859V88.3829H371.276V91.5281C371.278 92.4302 371.481 93.3204 371.871 94.1338C372.261 94.9471 372.828 95.663 373.531 96.2291C377.815 86.009 380.24 75.1054 380.689 64.0325C379.694 64.695 378.525 65.048 377.33 65.0471Z" fill="#277BC0"/>
<path opacity="0.6" d="M377.33 65.0471C376.534 65.0486 375.746 64.893 375.011 64.5893C374.276 64.2856 373.608 63.8397 373.046 63.2773C372.483 62.7149 372.037 62.0469 371.734 61.3118C371.43 60.5766 371.274 59.7887 371.276 58.9933V55.4535H360.859V88.3829H371.276V91.5281C371.278 92.4302 371.481 93.3204 371.871 94.1338C372.261 94.9471 372.828 95.663 373.531 96.2291C377.815 86.009 380.24 75.1054 380.689 64.0325C379.694 64.695 378.525 65.048 377.33 65.0471Z" fill="#00B91C"/>
<path d="M262.082 177.623H265.115C266.506 177.618 267.853 177.134 268.929 176.253C270.005 175.372 270.745 174.147 271.024 172.784C271.304 171.421 271.105 170.004 270.462 168.77C269.819 167.537 268.771 166.563 267.494 166.011C254.326 176.428 242.388 182.527 231.419 183.507L234.474 187.476H239.524V191.06C239.524 192.666 240.162 194.206 241.298 195.341C242.433 196.476 243.973 197.114 245.578 197.114C247.184 197.114 248.724 196.476 249.859 195.341C250.994 194.206 251.632 192.666 251.632 191.06V187.476H262.037L262.082 177.623Z" fill="#277BC0"/>
<path opacity="0.5" d="M262.082 177.623H265.115C266.506 177.618 267.853 177.134 268.929 176.253C270.005 175.372 270.745 174.147 271.024 172.784C271.304 171.421 271.105 170.004 270.462 168.77C269.819 167.537 268.771 166.563 267.494 166.011C254.326 176.428 242.388 182.527 231.419 183.507L234.474 187.476H239.524V191.06C239.524 192.666 240.162 194.206 241.298 195.341C242.433 196.476 243.973 197.114 245.578 197.114C247.184 197.114 248.724 196.476 249.859 195.341C250.994 194.206 251.632 192.666 251.632 191.06V187.476H262.037L262.082 177.623Z" fill="#FDCA00"/>
<path d="M273.547 160.983C274.276 162.047 275.326 162.85 276.543 163.276C277.76 163.702 279.081 163.728 280.314 163.35C281.547 162.973 282.627 162.212 283.397 161.178C284.167 160.144 284.587 158.891 284.595 157.601V154.388H295.012V140.229C287.47 148.143 280.368 155.099 273.547 160.983Z" fill="#277BC0"/>
<path opacity="0.5" d="M273.547 160.983C274.276 162.047 275.326 162.85 276.543 163.276C277.76 163.702 279.081 163.728 280.314 163.35C281.547 162.973 282.627 162.212 283.397 161.178C284.167 160.144 284.587 158.891 284.595 157.601V154.388H295.012V140.229C287.47 148.143 280.368 155.099 273.547 160.983Z" fill="#139713"/>
<path d="M317.525 157.579V154.366H327.941V144.141H330.963C331.758 144.141 332.545 143.984 333.279 143.68C334.014 143.376 334.681 142.93 335.243 142.368C335.805 141.806 336.251 141.138 336.556 140.404C336.86 139.669 337.016 138.882 337.016 138.087C337.016 137.292 336.86 136.505 336.556 135.77C336.251 135.036 335.805 134.369 335.243 133.806C334.681 133.244 334.014 132.798 333.279 132.494C332.545 132.19 331.758 132.033 330.963 132.033H327.941V121.448H317.525V125.033C317.503 126.353 317.05 127.629 316.235 128.668C315.42 129.707 314.288 130.451 313.012 130.787C311.735 131.123 310.383 131.032 309.163 130.528C307.942 130.025 306.92 129.136 306.251 127.997C302.434 132.296 298.702 136.373 295.057 140.229V154.366H305.462V157.579C305.462 159.184 306.1 160.724 307.235 161.859C308.371 162.995 309.91 163.632 311.516 163.632C313.122 163.632 314.661 162.995 315.797 161.859C316.932 160.724 317.57 159.184 317.57 157.579H317.525Z" fill="#277BC0"/>
<path d="M317.525 157.579V154.366H327.941V144.141H330.963C331.758 144.141 332.545 143.984 333.279 143.68C334.014 143.376 334.681 142.93 335.243 142.368C335.805 141.806 336.251 141.138 336.556 140.404C336.86 139.669 337.016 138.882 337.016 138.087C337.016 137.292 336.86 136.505 336.556 135.77C336.251 135.036 335.805 134.369 335.243 133.806C334.681 133.244 334.014 132.798 333.279 132.494C332.545 132.19 331.758 132.033 330.963 132.033H327.941V121.448H317.525V125.033C317.503 126.353 317.05 127.629 316.235 128.668C315.42 129.707 314.288 130.451 313.012 130.787C311.735 131.123 310.383 131.032 309.163 130.528C307.942 130.025 306.92 129.136 306.251 127.997C302.434 132.296 298.702 136.373 295.057 140.229V154.366H305.462V157.579C305.462 159.184 306.1 160.724 307.235 161.859C308.371 162.995 309.91 163.632 311.516 163.632C313.122 163.632 314.661 162.995 315.797 161.859C316.932 160.724 317.57 159.184 317.57 157.579H317.525Z" fill="#277BC0"/>
<path opacity="0.7" d="M317.525 157.579V154.366H327.941V144.141H330.963C331.758 144.141 332.545 143.984 333.279 143.68C334.014 143.376 334.681 142.93 335.243 142.368C335.805 141.806 336.251 141.138 336.556 140.404C336.86 139.669 337.016 138.882 337.016 138.087C337.016 137.292 336.86 136.505 336.556 135.77C336.251 135.036 335.805 134.369 335.243 133.806C334.681 133.244 334.014 132.798 333.279 132.494C332.545 132.19 331.758 132.033 330.963 132.033H327.941V121.448H317.525V125.033C317.503 126.353 317.05 127.629 316.235 128.668C315.42 129.707 314.288 130.451 313.012 130.787C311.735 131.123 310.383 131.032 309.163 130.528C307.942 130.025 306.92 129.136 306.251 127.997C302.434 132.296 298.702 136.373 295.057 140.229V154.366H305.462V157.579C305.462 159.184 306.1 160.724 307.235 161.859C308.371 162.995 309.91 163.632 311.516 163.632C313.122 163.632 314.661 162.995 315.797 161.859C316.932 160.724 317.57 159.184 317.57 157.579H317.525Z" fill="#F8DC09"/>
<path d="M305.417 154.467V157.579C305.417 159.184 306.055 160.724 307.19 161.859C308.325 162.995 309.865 163.632 311.471 163.632C313.076 163.632 314.616 162.995 315.752 161.859C316.887 160.724 317.525 159.184 317.525 157.579V154.366H327.941V164.895C320.868 173.475 313.342 181.671 305.395 189.448V187.475H294.989V177.623H298.011C299.616 177.623 301.156 176.985 302.291 175.849C303.426 174.714 304.064 173.174 304.064 171.569C304.064 169.963 303.426 168.423 302.291 167.288C301.156 166.153 299.616 165.515 298.011 165.515H294.989V154.366H305.395L305.417 154.467Z" fill="#277BC0"/>
<g opacity="0.5">
<path d="M305.417 154.467V157.579C305.417 159.184 306.055 160.724 307.19 161.859C308.325 162.995 309.865 163.632 311.471 163.632C313.076 163.632 314.616 162.995 315.752 161.859C316.887 160.724 317.525 159.184 317.525 157.579V154.366H327.941V164.895C320.868 173.475 313.342 181.671 305.395 189.448V187.475H294.989V177.623H298.011C299.616 177.623 301.156 176.985 302.291 175.849C303.426 174.714 304.064 173.174 304.064 171.569C304.064 169.963 303.426 168.423 302.291 167.288C301.156 166.153 299.616 165.515 298.011 165.515H294.989V154.366H305.395L305.417 154.467Z" fill="#07CA1D"/>
</g>
<path d="M327.941 154.546V164.895C330.635 161.637 333.409 158.199 336.238 154.546L336.374 154.366H327.941V154.546Z" fill="#277BC0"/>
<path d="M350.454 121.448V125.033C350.454 126.638 349.816 128.178 348.681 129.313C347.546 130.449 346.006 131.086 344.4 131.086C342.795 131.086 341.255 130.449 340.12 129.313C338.984 128.178 338.346 126.638 338.346 125.033V121.448H327.941V132.033H330.962C331.757 132.033 332.545 132.19 333.279 132.494C334.014 132.798 334.681 133.244 335.243 133.806C335.805 134.369 336.251 135.036 336.555 135.77C336.86 136.505 337.016 137.292 337.016 138.087C337.016 138.882 336.86 139.669 336.555 140.404C336.251 141.138 335.805 141.806 335.243 142.368C334.681 142.93 334.014 143.376 333.279 143.68C332.545 143.984 331.757 144.141 330.962 144.141H327.941V154.366H336.374C343.78 144.829 351.604 133.916 359.822 121.448H350.454Z" fill="#277BC0"/>
<path opacity="0.2" d="M350.454 121.448V125.033C350.454 126.638 349.816 128.178 348.681 129.313C347.546 130.449 346.006 131.086 344.4 131.086C342.795 131.086 341.255 130.449 340.12 129.313C338.984 128.178 338.346 126.638 338.346 125.033V121.448H327.941V132.033H330.962C331.757 132.033 332.545 132.19 333.279 132.494C334.014 132.798 334.681 133.244 335.243 133.806C335.805 134.369 336.251 135.036 336.555 135.77C336.86 136.505 337.016 137.292 337.016 138.087C337.016 138.882 336.86 139.669 336.555 140.404C336.251 141.138 335.805 141.806 335.243 142.368C334.681 142.93 334.014 143.376 333.279 143.68C332.545 143.984 331.757 144.141 330.962 144.141H327.941V154.366H336.374C343.78 144.829 351.604 133.916 359.822 121.448H350.454Z" fill="#3009BB"/>
<path d="M262.082 210.169H265.115C266.721 210.169 268.26 209.531 269.396 208.396C270.531 207.26 271.169 205.721 271.169 204.115C271.169 202.509 270.531 200.97 269.396 199.834C268.26 198.699 266.721 198.061 265.115 198.061H262.082V187.476H251.677V191.06C251.677 192.666 251.039 194.206 249.904 195.341C248.769 196.476 247.229 197.114 245.623 197.114C244.018 197.114 242.478 196.476 241.343 195.341C240.207 194.206 239.57 192.666 239.57 191.06V187.476H234.485L259.817 220.394C260.581 220.236 261.334 220.029 262.071 219.774L262.082 210.169Z" fill="#277BC0"/>
<path opacity="0.2" d="M262.082 210.169H265.115C266.721 210.169 268.26 209.531 269.396 208.396C270.531 207.26 271.169 205.721 271.169 204.115C271.169 202.509 270.531 200.97 269.396 199.834C268.26 198.699 266.721 198.061 265.115 198.061H262.082V187.476H251.677V191.06C251.677 192.666 251.039 194.206 249.904 195.341C248.769 196.476 247.229 197.114 245.623 197.114C244.018 197.114 242.478 196.476 241.343 195.341C240.207 194.206 239.57 192.666 239.57 191.06V187.476H234.485L259.817 220.394C260.581 220.236 261.334 220.029 262.071 219.774L262.082 210.169Z" fill="#4D00FF"/>
<path d="M284.595 191.06C284.631 191.877 284.5 192.692 284.212 193.456C283.924 194.221 283.484 194.919 282.919 195.509C282.354 196.099 281.675 196.568 280.924 196.889C280.173 197.21 279.364 197.375 278.547 197.375C277.73 197.375 276.922 197.21 276.17 196.889C275.419 196.568 274.74 196.099 274.175 195.509C273.61 194.919 273.17 194.221 272.882 193.456C272.594 192.692 272.464 191.877 272.499 191.06V187.476H262.083V198.061H265.115C266.721 198.061 268.26 198.699 269.396 199.834C270.531 200.97 271.169 202.509 271.169 204.115C271.169 205.721 270.531 207.26 269.396 208.396C268.26 209.531 266.721 210.169 265.115 210.169H262.083V219.774C266.671 218.252 278.147 213.382 295.012 198.963V187.476H284.595V191.06Z" fill="#277BC0"/>
<path opacity="0.7" d="M284.595 191.06C284.631 191.877 284.5 192.692 284.212 193.456C283.924 194.221 283.484 194.919 282.919 195.509C282.354 196.099 281.675 196.568 280.924 196.889C280.173 197.21 279.364 197.375 278.547 197.375C277.73 197.375 276.922 197.21 276.17 196.889C275.419 196.568 274.74 196.099 274.175 195.509C273.61 194.919 273.17 194.221 272.882 193.456C272.594 192.692 272.464 191.877 272.499 191.06V187.476H262.083V198.061H265.115C266.721 198.061 268.26 198.699 269.396 199.834C270.531 200.97 271.169 202.509 271.169 204.115C271.169 205.721 270.531 207.26 269.396 208.396C268.26 209.531 266.721 210.169 265.115 210.169H262.083V219.774C266.671 218.252 278.147 213.382 295.012 198.963V187.476H284.595V191.06Z" fill="#DE0101"/>
<path d="M305.417 189.448V187.476H295.012V198.963C298.281 196.167 301.753 192.988 305.417 189.448Z" fill="#277BC0"/>
<path d="M295.012 154.546V165.515H298.033C299.639 165.515 301.179 166.153 302.314 167.288C303.449 168.423 304.087 169.963 304.087 171.569C304.087 173.174 303.449 174.714 302.314 175.849C301.179 176.985 299.639 177.623 298.033 177.623H295.012V187.475H284.595V191.06C284.631 191.877 284.5 192.692 284.212 193.456C283.924 194.221 283.484 194.919 282.919 195.509C282.354 196.099 281.675 196.568 280.924 196.889C280.173 197.21 279.364 197.375 278.547 197.375C277.73 197.375 276.922 197.21 276.17 196.889C275.419 196.568 274.74 196.099 274.175 195.509C273.61 194.919 273.17 194.221 272.882 193.456C272.594 192.692 272.464 191.877 272.499 191.06V187.475H262.083V177.623H265.115C266.506 177.618 267.853 177.134 268.929 176.253C270.005 175.371 270.745 174.146 271.024 172.784C271.304 171.421 271.105 170.004 270.462 168.77C269.819 167.537 268.771 166.562 267.494 166.011C269.493 164.433 271.511 162.757 273.547 160.983C274.276 162.047 275.326 162.85 276.543 163.276C277.76 163.702 279.081 163.728 280.314 163.35C281.547 162.973 282.627 162.212 283.397 161.178C284.167 160.144 284.587 158.891 284.595 157.601V154.388H295.012C295.012 154.388 295.057 154.546 295.012 154.546Z" fill="#277BC0"/>
<path opacity="0.2" d="M295.012 154.546V165.515H298.033C299.639 165.515 301.179 166.153 302.314 167.288C303.449 168.423 304.087 169.963 304.087 171.569C304.087 173.174 303.449 174.714 302.314 175.849C301.179 176.985 299.639 177.623 298.033 177.623H295.012V187.475H284.595V191.06C284.631 191.877 284.5 192.692 284.212 193.456C283.924 194.221 283.484 194.919 282.919 195.509C282.354 196.099 281.675 196.568 280.924 196.889C280.173 197.21 279.364 197.375 278.547 197.375C277.73 197.375 276.922 197.21 276.17 196.889C275.419 196.568 274.74 196.099 274.175 195.509C273.61 194.919 273.17 194.221 272.882 193.456C272.594 192.692 272.464 191.877 272.499 191.06V187.475H262.083V177.623H265.115C266.506 177.618 267.853 177.134 268.929 176.253C270.005 175.371 270.745 174.146 271.024 172.784C271.304 171.421 271.105 170.004 270.462 168.77C269.819 167.537 268.771 166.562 267.494 166.011C269.493 164.433 271.511 162.757 273.547 160.983C274.276 162.047 275.326 162.85 276.543 163.276C277.76 163.702 279.081 163.728 280.314 163.35C281.547 162.973 282.627 162.212 283.397 161.178C284.167 160.144 284.587 158.891 284.595 157.601V154.388H295.012C295.012 154.388 295.057 154.546 295.012 154.546Z" fill="#000788"/>
<path d="M350.454 88.5182V91.5282C350.454 93.1337 349.816 94.6735 348.681 95.8088C347.546 96.9441 346.006 97.5819 344.4 97.5819C342.795 97.5819 341.255 96.9441 340.12 95.8088C338.984 94.6735 338.346 93.1337 338.346 91.5282V89.6906C335.663 93.0275 333.033 96.2893 330.455 99.4759H331.008C332.613 99.4759 334.153 100.114 335.288 101.249C336.424 102.384 337.061 103.924 337.061 105.53C337.061 107.135 336.424 108.675 335.288 109.81C334.153 110.946 332.613 111.583 331.008 111.583H327.941V121.436H338.346V125.021C338.346 126.627 338.984 128.167 340.12 129.302C341.255 130.437 342.795 131.075 344.4 131.075C346.006 131.075 347.546 130.437 348.681 129.302C349.816 128.167 350.454 126.627 350.454 125.021V121.436H359.822L360.859 119.847V111.595H363.892C364.702 111.597 365.504 111.432 366.248 111.11C367.544 108.855 368.728 106.601 369.822 104.346C369.557 102.967 368.82 101.723 367.738 100.828C366.656 99.9332 365.296 99.4431 363.892 99.4421H360.859V88.2927H350.454V88.5182Z" fill="#277BC0"/>
<path opacity="0.5" d="M350.454 88.5182V91.5282C350.454 93.1337 349.816 94.6735 348.681 95.8088C347.546 96.9441 346.006 97.5819 344.4 97.5819C342.795 97.5819 341.255 96.9441 340.12 95.8088C338.984 94.6735 338.346 93.1337 338.346 91.5282V89.6906C335.663 93.0275 333.033 96.2893 330.455 99.4759H331.008C332.613 99.4759 334.153 100.114 335.288 101.249C336.424 102.384 337.061 103.924 337.061 105.53C337.061 107.135 336.424 108.675 335.288 109.81C334.153 110.946 332.613 111.583 331.008 111.583H327.941V121.436H338.346V125.021C338.346 126.627 338.984 128.167 340.12 129.302C341.255 130.437 342.795 131.075 344.4 131.075C346.006 131.075 347.546 130.437 348.681 129.302C349.816 128.167 350.454 126.627 350.454 125.021V121.436H359.822L360.859 119.847V111.595H363.892C364.702 111.597 365.504 111.432 366.248 111.11C367.544 108.855 368.728 106.601 369.822 104.346C369.557 102.967 368.82 101.723 367.738 100.828C366.656 99.9332 365.296 99.4431 363.892 99.4421H360.859V88.2927H350.454V88.5182Z" fill="#FF0202"/>
<path d="M360.859 111.595V119.858L361.558 118.798C363.249 116.205 364.805 113.635 366.248 111.11C365.505 111.432 364.702 111.597 363.892 111.595H360.859Z" fill="#277BC0"/>
<path d="M360.859 88.5182V99.4872H363.892C365.296 99.4882 366.656 99.9783 367.738 100.873C368.82 101.768 369.557 103.012 369.822 104.391C371.197 101.618 372.426 98.9009 373.508 96.2404C372.806 95.6743 372.239 94.9584 371.849 94.1451C371.459 93.3318 371.255 92.4415 371.253 91.5395V88.3378H360.859V88.5182Z" fill="#277BC0"/>
<g opacity="0.7">
<path d="M360.859 111.595V119.858L361.558 118.798C363.249 116.206 364.805 113.635 366.248 111.11C365.505 111.432 364.702 111.597 363.892 111.595H360.859Z" fill="white"/>
<path d="M360.859 88.5182V99.4872H363.892C365.296 99.4882 366.656 99.9783 367.738 100.873C368.82 101.768 369.557 103.012 369.822 104.391C371.197 101.618 372.426 98.9009 373.508 96.2404C372.806 95.6743 372.239 94.9584 371.849 94.1451C371.459 93.3318 371.255 92.4415 371.253 91.5395V88.3378H360.859V88.5182Z" fill="#FFBB00"/>
</g>
<path d="M415.377 343.882V412.818H419.188V378.322C419.188 366.225 425.591 356.418 433.471 356.418C441.351 356.418 447.754 366.225 447.754 378.322V412.818H451.565V343.882H415.377Z" fill="#277BC0"/>
<path opacity="0.1" d="M415.377 343.882V412.818H419.188V378.322C419.188 366.225 425.591 356.418 433.471 356.418C441.351 356.418 447.754 366.225 447.754 378.322V412.818H451.565V343.882H415.377Z" fill="white"/>
<path d="M446.773 343.882H392.661L402.807 288.135H453.537L446.773 343.882Z" fill="#277BC0"/>
<path opacity="0.3" d="M446.773 343.882H392.661L402.807 288.135H453.537L446.773 343.882Z" fill="white"/>
<path d="M359.856 343.882V412.818H365.707V378.322C365.707 372.509 368.016 366.935 372.126 362.825C376.236 358.715 381.81 356.406 387.622 356.406C393.435 356.406 399.009 358.715 403.119 362.825C407.229 366.935 409.538 372.509 409.538 378.322V412.818H415.377V343.882H359.856Z" fill="#277BC0"/>
<path d="M359.856 343.882V412.818H363.667V378.322C363.667 366.225 370.07 356.418 377.95 356.418C385.83 356.418 392.233 366.225 392.233 378.322V412.818H396.044V343.882H359.856Z" fill="#277BC0"/>
<path opacity="0.3" d="M359.856 343.882V412.818H363.667V378.322C363.667 366.225 370.07 356.418 377.95 356.418C385.83 356.418 392.233 366.225 392.233 378.322V412.818H396.044V343.882H359.856Z" fill="white"/>
<path d="M451.565 288.135L441.419 343.882H396.043V412.818H401.894V378.322C401.894 372.509 404.203 366.935 408.313 362.825C412.423 358.715 417.997 356.406 423.81 356.406C429.622 356.406 435.196 358.715 439.306 362.825C443.416 366.935 445.725 372.509 445.725 378.322V412.818H451.565V343.882L458.329 288.135H451.565Z" fill="#277BC0"/>
<path opacity="0.5" d="M451.565 288.135L441.419 343.882H396.043V412.818H401.894V378.322C401.894 372.509 404.203 366.935 408.313 362.825C412.423 358.715 417.997 356.406 423.81 356.406C429.622 356.406 435.196 358.715 439.306 362.825C443.416 366.935 445.725 372.509 445.725 378.322V412.818H451.565V343.882L458.329 288.135H451.565Z" fill="white"/>
<path d="M360.668 314.278C355.482 314.909 344.322 318.596 344.694 326.295C345.066 333.995 351.649 402.582 351.649 402.582H361.987C361.987 402.582 369.123 346.779 365.932 337.569H378.514L366.496 314.278C366.496 314.278 362.111 314.098 360.668 314.278Z" fill="#EEC1BB"/>
<path d="M385.728 306.432C385.728 306.432 382.47 309.746 381.027 310.186C373.891 312.44 363.554 309.814 353.599 314.887C353.599 314.887 365.91 313.173 369.562 338.369C369.562 338.369 391.737 342.687 413.912 341.379C436.086 340.071 421.995 306.432 421.995 306.432H385.728Z" fill="#0D0D0C"/>
<path opacity="0.5" d="M385.728 306.432C385.728 306.432 382.47 309.746 381.027 310.186C373.891 312.44 363.554 309.814 353.599 314.887C353.599 314.887 365.91 313.173 369.562 338.369C369.562 338.369 391.737 342.687 413.912 341.379C436.086 340.071 421.995 306.432 421.995 306.432H385.728Z" fill="black"/>
<path d="M349.845 316.296C352.184 316.444 354.464 317.085 356.537 318.177C358.61 319.269 360.429 320.787 361.874 322.631C367.048 329.035 368.548 339.079 368.548 339.079L372.121 339.733C372.121 339.733 373.035 331.289 366.575 321.887C360.115 312.485 354.738 313.241 354.738 313.241L349.845 316.296Z" fill="#277BC0"/>
<path d="M347.794 402.751C346.754 402.847 345.715 402.559 344.874 401.939C344.77 401.789 344.714 401.61 344.714 401.426C344.714 401.243 344.77 401.064 344.874 400.913C345.046 400.642 345.317 400.448 345.629 400.372C347.298 399.944 350.736 401.996 350.894 402.086C350.935 402.111 350.967 402.149 350.985 402.193C351.004 402.238 351.007 402.287 350.995 402.334C350.988 402.381 350.965 402.424 350.931 402.457C350.896 402.49 350.851 402.51 350.804 402.514C349.809 402.681 348.802 402.76 347.794 402.751ZM346.238 400.789C346.089 400.767 345.937 400.767 345.787 400.789C345.688 400.804 345.595 400.841 345.512 400.898C345.43 400.955 345.362 401.029 345.314 401.116C345.133 401.398 345.201 401.545 345.257 401.624C345.708 402.289 348.222 402.345 350.082 402.142C348.897 401.453 347.593 400.994 346.238 400.789Z" fill="#277BC0"/>
<path d="M350.804 402.514C350.788 402.522 350.77 402.526 350.753 402.526C350.735 402.526 350.718 402.522 350.702 402.514C349.575 401.973 347.162 399.764 347.399 398.647C347.399 398.377 347.636 398.061 348.29 398.005C348.525 397.983 348.763 398.01 348.988 398.084C349.213 398.158 349.42 398.277 349.597 398.433C350.849 399.493 351.063 402.187 351.074 402.311C351.076 402.352 351.066 402.393 351.046 402.428C351.026 402.464 350.997 402.494 350.961 402.514C350.937 402.525 350.91 402.531 350.883 402.531C350.855 402.531 350.828 402.525 350.804 402.514ZM348.436 398.445H348.301C347.873 398.445 347.85 398.648 347.827 398.704C347.76 399.38 349.293 401.094 350.522 401.849C350.422 400.717 349.978 399.643 349.248 398.772C349.022 398.577 348.734 398.469 348.436 398.467V398.445Z" fill="#277BC0"/>
<path d="M351.886 401.139L362.754 401.331C362.953 401.334 363.145 401.405 363.299 401.532C363.452 401.659 363.558 401.834 363.599 402.03L365.403 410.902C365.444 411.089 365.447 411.283 365.413 411.471C365.378 411.66 365.306 411.84 365.201 412.001C365.096 412.161 364.96 412.299 364.801 412.407C364.642 412.514 364.464 412.589 364.275 412.626C364.174 412.638 364.072 412.638 363.971 412.626C360.048 412.491 356.564 412.221 351.694 412.142C345.934 412.04 347.388 412.762 340.613 412.739C336.532 412.739 335.867 408.072 337.603 407.88C345.494 407.012 346.396 404.645 349.496 401.86C350.18 401.34 351.028 401.083 351.886 401.139Z" fill="#0D0D0C"/>
<path d="M387.803 319.768C387.803 319.768 369.202 320.704 369.585 328.415C369.968 336.126 377.657 402.435 377.657 402.435H387.994C387.994 402.435 395.13 351.142 391.94 341.943H405.66L393.631 319.768H387.803Z" fill="#EEC1BB"/>
<path d="M437.022 306.432C437.022 306.432 440.122 340.534 416.73 342.788C393.338 345.043 396.156 342.788 396.156 342.788C396.156 342.788 390.925 324.886 374.275 321.504C374.275 321.504 390.452 317.186 393.597 312.373C394.251 311.358 395.57 308.709 395.57 308.709L437.022 306.432Z" fill="#0D0D0C"/>
<path d="M370.701 322.958C370.701 322.958 390.001 330.85 394.747 343.78L399.674 344.411C399.674 344.411 396.066 327.659 375.582 320.14L370.701 322.958Z" fill="#277BC0"/>
<path d="M374.004 402.751C372.964 402.847 371.925 402.559 371.085 401.939C370.98 401.789 370.924 401.61 370.924 401.426C370.924 401.243 370.98 401.064 371.085 400.913C371.257 400.642 371.527 400.448 371.84 400.372C373.508 399.944 376.947 401.996 377.104 402.086C377.146 402.111 377.178 402.149 377.196 402.193C377.214 402.238 377.218 402.287 377.206 402.334C377.199 402.381 377.176 402.424 377.141 402.457C377.106 402.49 377.062 402.51 377.014 402.514C376.02 402.681 375.013 402.76 374.004 402.751ZM372.449 400.789C372.299 400.767 372.147 400.767 371.998 400.789C371.899 400.804 371.805 400.841 371.723 400.898C371.641 400.955 371.573 401.029 371.524 401.116C371.344 401.398 371.411 401.545 371.468 401.624C371.919 402.289 374.433 402.345 376.293 402.142C375.108 401.453 373.804 400.994 372.449 400.789Z" fill="#277BC0"/>
<path d="M377.014 402.514C376.998 402.522 376.981 402.526 376.963 402.526C376.946 402.526 376.928 402.522 376.913 402.514C375.785 401.973 373.373 399.764 373.61 398.647C373.61 398.377 373.846 398.061 374.5 398.005C374.736 397.983 374.973 398.01 375.198 398.084C375.423 398.158 375.631 398.277 375.808 398.433C377.059 399.493 377.273 402.187 377.285 402.311C377.286 402.352 377.276 402.393 377.256 402.428C377.237 402.464 377.207 402.494 377.172 402.514C377.147 402.525 377.12 402.531 377.093 402.531C377.066 402.531 377.039 402.525 377.014 402.514ZM374.647 398.445H374.511C374.083 398.445 374.061 398.648 374.038 398.704C373.97 399.38 375.504 401.094 376.732 401.849C376.633 400.717 376.188 399.643 375.458 398.772C375.233 398.577 374.945 398.469 374.647 398.467V398.445Z" fill="#277BC0"/>
<path d="M378.096 401.139L388.964 401.331C389.163 401.334 389.355 401.405 389.509 401.532C389.662 401.659 389.768 401.834 389.809 402.03L391.613 410.902C391.654 411.089 391.658 411.283 391.623 411.471C391.588 411.66 391.516 411.84 391.411 412.001C391.306 412.161 391.171 412.299 391.012 412.407C390.853 412.514 390.674 412.589 390.486 412.626C390.384 412.638 390.282 412.638 390.181 412.626C386.258 412.491 382.775 412.221 377.905 412.142C372.144 412.04 373.598 412.762 366.823 412.739C362.742 412.739 362.077 408.072 363.813 407.88C371.704 407.012 372.606 404.645 375.706 401.86C376.39 401.34 377.239 401.083 378.096 401.139Z" fill="#0D0D0C"/>
<path d="M376.845 272.589C376.845 272.589 368.48 283.863 362.28 283.107C356.08 282.352 343.454 259.264 343.454 259.264L335.213 252.962C334.81 252.657 334.501 252.244 334.322 251.772C334.143 251.3 334.1 250.786 334.198 250.291L335.743 242.456C335.854 241.884 336.146 241.364 336.577 240.972C337.008 240.58 337.553 240.337 338.133 240.28L339.79 240.122C340.403 240.06 341.019 240.21 341.536 240.546C342.052 240.883 342.438 241.385 342.631 241.971L346.836 254.755L361.604 268.519L368.627 261.755L376.845 272.589Z" fill="#EEC1BB"/>
<path d="M375.954 251.531L363.001 265.205C367.056 268.889 370.54 273.156 373.339 277.865C373.339 277.865 386.021 270.165 388.885 262.274C390.373 258.182 388.693 252.703 385.649 250.55C384.186 249.52 382.4 249.052 380.619 249.232C378.838 249.412 377.182 250.228 375.954 251.531Z" fill="#0D0D0C"/>
<path d="M377.555 249.501C377.555 249.501 392.729 277.865 384.037 307.841C401.642 312.449 420.086 312.836 437.868 308.968C437.868 308.968 438.206 297.548 438.657 276.817C439.051 258.982 438.206 239.491 426.031 234.564C402.357 224.982 377.555 249.501 377.555 249.501Z" fill="#277BC0"/>
<path d="M436.459 257.956C436.459 257.956 440.032 282.374 429.695 283.502C419.357 284.629 402.075 282.002 402.075 282.002L392.493 280.052C392.037 279.959 391.616 279.746 391.271 279.434C390.926 279.123 390.67 278.725 390.531 278.282L388.93 272.95C388.727 272.312 388.784 271.619 389.088 271.022L389.742 269.692C389.915 269.343 390.165 269.037 390.472 268.797C390.78 268.557 391.137 268.389 391.518 268.306C391.899 268.223 392.293 268.226 392.673 268.316C393.052 268.405 393.407 268.579 393.71 268.824L403.259 276.557L424.486 272.612L420.732 261.338L436.459 257.956Z" fill="#EEC1BB"/>
<path d="M407.926 232.952C402.639 232.332 400.384 221.51 400.384 221.51L390.475 229.626L392.673 238.566C392.673 238.566 388.84 251.328 399.831 248.509C410.823 245.691 407.926 232.952 407.926 232.952Z" fill="#EEC1BB"/>
<path opacity="0.1" d="M399.922 224.79L397.78 223.663L390.475 229.649L391.985 235.793C397.633 236.83 399.922 224.79 399.922 224.79Z" fill="black"/>
<path d="M419.515 234.699C425.58 230.416 436.695 237.845 438.206 260.2C438.206 260.2 430.123 259.456 420.721 265.16C420.721 265.205 411.477 240.449 419.515 234.699Z" fill="#0D0D0C"/>
<path d="M402.943 211.161C401.353 220.619 400.891 226.233 395.559 230.596C387.555 237.18 376.27 231.543 375.019 221.825C373.891 213.021 376.699 199.076 386.416 196.28C388.555 195.654 390.819 195.585 392.992 196.08C395.165 196.575 397.175 197.618 398.831 199.109C400.488 200.601 401.735 202.491 402.455 204.6C403.174 206.71 403.342 208.968 402.943 211.161Z" fill="#EEC1BB"/>
<path d="M387.803 212.322C387.724 213.111 387.25 213.697 386.743 213.641C386.236 213.585 385.898 212.908 385.977 212.13C386.055 211.352 386.54 210.777 387.104 210.834C387.668 210.89 387.803 211.555 387.803 212.322Z" fill="#2E353A"/>
<path d="M383.553 223.009C383.485 223.787 383 224.373 382.493 224.317C381.986 224.26 381.636 223.584 381.726 222.806C381.817 222.028 382.279 221.453 382.786 221.51C383.293 221.566 383.643 222.299 383.553 223.009Z" fill="#2E353A"/>
<path d="M379.01 211.397C378.919 212.164 378.446 212.75 377.939 212.694C377.431 212.638 377.093 211.972 377.183 211.206C377.273 210.439 377.736 209.842 378.243 209.898C378.75 209.954 379.088 210.62 379.01 211.397Z" fill="#2E353A"/>
<path d="M382.222 212.04C381.047 214.308 379.564 216.402 377.815 218.263C378.301 218.704 378.878 219.033 379.505 219.228C380.132 219.423 380.794 219.478 381.445 219.39L382.222 212.04Z" fill="#D4827D"/>
<path d="M391.185 209.019C391.259 209.03 391.336 209.03 391.41 209.019C391.512 208.954 391.585 208.852 391.615 208.735C391.644 208.617 391.627 208.493 391.568 208.388C391.202 207.763 390.694 207.233 390.084 206.841C389.475 206.45 388.782 206.207 388.062 206.133C387.939 206.133 387.822 206.182 387.735 206.268C387.649 206.355 387.6 206.472 387.6 206.595C387.6 206.718 387.649 206.835 387.735 206.922C387.822 207.009 387.939 207.057 388.062 207.057C388.633 207.119 389.181 207.317 389.66 207.635C390.139 207.953 390.534 208.381 390.813 208.884C390.861 208.932 390.92 208.969 390.984 208.992C391.048 209.015 391.117 209.024 391.185 209.019Z" fill="#2E353A"/>
<path d="M375.977 207.497C376.054 207.498 376.13 207.479 376.197 207.441C376.265 207.404 376.321 207.349 376.36 207.283C376.646 206.79 377.044 206.372 377.522 206.063C378 205.753 378.545 205.561 379.111 205.502C379.171 205.502 379.231 205.49 379.286 205.466C379.342 205.443 379.392 205.409 379.434 205.366C379.476 205.322 379.509 205.271 379.531 205.215C379.553 205.159 379.563 205.1 379.562 205.039C379.562 204.979 379.55 204.92 379.526 204.864C379.503 204.809 379.469 204.759 379.426 204.716C379.383 204.674 379.332 204.641 379.276 204.62C379.22 204.598 379.16 204.587 379.1 204.588C378.369 204.647 377.664 204.884 377.045 205.276C376.426 205.669 375.913 206.207 375.549 206.843C375.516 206.892 375.493 206.948 375.482 207.006C375.471 207.064 375.471 207.124 375.484 207.182C375.497 207.24 375.521 207.295 375.555 207.343C375.59 207.391 375.633 207.432 375.684 207.463C375.774 207.511 375.878 207.523 375.977 207.497Z" fill="#2E353A"/>
<path d="M400.44 216.662C400.44 216.662 395.75 214.498 397.622 205.479C397.622 205.479 388.953 207.734 388.975 201.251C388.975 201.251 380.193 203.438 380.836 199.763C380.836 199.763 375.481 200.688 375.921 196.652C376.484 191.635 382.313 195.333 383.812 194.769C383.812 194.769 382.685 191.105 385.92 190.08C390.711 188.569 390.486 193.834 394.341 194.206C398.197 194.578 403.146 193.642 403.157 197.869C403.157 197.869 408.794 199.087 408.275 204.633C407.757 210.18 414.532 211.679 412.097 215.061C409.662 218.443 407.306 214.644 407.306 214.644C407.306 214.644 408.906 220.89 405.141 222.953C401.376 225.016 404.228 227.654 402.379 226.808C400.53 225.963 398.806 219.12 400.44 216.662Z" fill="#0D0D0C"/>
<path d="M406.652 220.54C405.147 222.419 402.965 223.633 400.575 223.922C397.396 224.26 396.325 221.307 397.644 218.579C398.772 216.121 401.906 212.942 404.882 213.889C407.858 214.836 408.467 218.184 406.652 220.54Z" fill="#EEC1BB"/>
<path d="M402.379 198.963C402.379 198.963 408.692 198.805 406.212 194.803C403.732 190.801 402.379 198.963 402.379 198.963Z" fill="#0D0D0C"/>
<path d="M324.931 227.53L326.431 229.029L323.049 232.411L337.073 246.469L340.455 243.087L341.762 244.395C342.234 244.865 342.794 245.239 343.409 245.493C344.025 245.748 344.685 245.878 345.351 245.878C346.018 245.877 346.677 245.746 347.293 245.49C347.908 245.235 348.467 244.86 348.938 244.389C349.409 243.917 349.782 243.358 350.036 242.742C350.291 242.126 350.422 241.466 350.421 240.8C350.421 240.134 350.289 239.474 350.033 238.859C349.778 238.243 349.404 237.684 348.932 237.213L347.636 235.827L351.018 232.445L347.636 229.063L346.091 230.528C345.139 231.481 343.848 232.016 342.501 232.016C341.154 232.016 339.863 231.481 338.91 230.528C337.958 229.576 337.423 228.285 337.423 226.938C337.423 225.591 337.958 224.299 338.91 223.347L340.455 221.848L337.073 218.466L333.691 221.848L332.191 220.349C331.72 219.877 331.16 219.503 330.544 219.248C329.928 218.993 329.268 218.861 328.601 218.861C327.934 218.861 327.274 218.993 326.658 219.248C326.042 219.503 325.482 219.877 325.01 220.349C324.539 220.82 324.165 221.38 323.91 221.996C323.654 222.612 323.523 223.272 323.523 223.939C323.523 224.606 323.654 225.266 323.91 225.882C324.165 226.498 324.539 227.058 325.01 227.53H324.931Z" fill="#277BC0"/>
<path opacity="0.3" d="M324.931 227.53L326.431 229.029L323.049 232.411L337.073 246.469L340.455 243.087L341.762 244.395C342.234 244.865 342.794 245.239 343.409 245.493C344.025 245.748 344.685 245.878 345.351 245.878C346.018 245.877 346.677 245.746 347.293 245.49C347.908 245.235 348.467 244.86 348.938 244.389C349.409 243.917 349.782 243.358 350.036 242.742C350.291 242.126 350.422 241.466 350.421 240.8C350.421 240.134 350.289 239.474 350.033 238.859C349.778 238.243 349.404 237.684 348.932 237.213L347.636 235.827L351.018 232.445L347.636 229.063L346.091 230.528C345.139 231.481 343.848 232.016 342.501 232.016C341.154 232.016 339.863 231.481 338.91 230.528C337.958 229.576 337.423 228.285 337.423 226.938C337.423 225.591 337.958 224.299 338.91 223.347L340.455 221.848L337.073 218.466L333.691 221.848L332.191 220.349C331.72 219.877 331.16 219.503 330.544 219.248C329.928 218.993 329.268 218.861 328.601 218.861C327.934 218.861 327.274 218.993 326.658 219.248C326.042 219.503 325.482 219.877 325.01 220.349C324.539 220.82 324.165 221.38 323.91 221.996C323.654 222.612 323.523 223.272 323.523 223.939C323.523 224.606 323.654 225.266 323.91 225.882C324.165 226.498 324.539 227.058 325.01 227.53H324.931Z" fill="black"/>
<path d="M339.215 395.739C333.93 395.828 328.681 394.864 323.773 392.903C318.864 390.942 314.396 388.024 310.627 384.318C306.859 380.613 303.866 376.194 301.823 371.319C299.779 366.445 298.727 361.213 298.727 355.927C298.727 350.642 299.779 345.41 301.823 340.535C303.866 335.661 306.859 331.242 310.627 327.536C314.396 323.831 318.864 320.912 323.773 318.951C328.681 316.991 333.93 316.027 339.215 316.116H379.021V299.082H281.63L286.861 412.818H379.021V395.739H339.215Z" fill="#277BC0"/>
<path opacity="0.5" d="M339.215 395.739C333.93 395.828 328.681 394.864 323.773 392.903C318.864 390.942 314.396 388.024 310.627 384.318C306.859 380.613 303.866 376.194 301.823 371.319C299.779 366.445 298.727 361.213 298.727 355.927C298.727 350.642 299.779 345.41 301.823 340.535C303.866 335.661 306.859 331.242 310.627 327.536C314.396 323.831 318.864 320.912 323.773 318.951C328.681 316.991 333.93 316.027 339.215 316.116H379.021V299.082H281.63L286.861 412.818H379.021V395.739H339.215Z" fill="white"/>
<path d="M286.861 412.773H229.266L224.024 299.082H281.63L286.861 412.773Z" fill="#277BC0"/>
<path opacity="0.3" d="M286.861 412.773H229.266L224.024 299.082H281.63L286.861 412.773Z" fill="white"/>
<path d="M283.378 292.904H218.793V299.093H283.378V292.904Z" fill="#277BC0"/>
<path opacity="0.1" d="M283.378 292.904H218.793V299.093H283.378V292.904Z" fill="white"/>
<path d="M384.263 292.904H283.378V299.093H384.263V292.904Z" fill="#277BC0"/>
<path opacity="0.3" d="M384.263 292.904H283.378V299.093H384.263V292.904Z" fill="white"/>
<path d="M277.673 287.966H279.838V292.904H300.04V287.966H301.922C303.295 287.966 304.611 287.421 305.581 286.45C306.552 285.48 307.097 284.164 307.097 282.792C307.097 281.419 306.552 280.103 305.581 279.133C304.611 278.162 303.295 277.617 301.922 277.617H300.04V272.691H295.113V274.855C295.113 276.227 294.568 277.544 293.598 278.514C292.627 279.484 291.311 280.03 289.939 280.03C288.566 280.03 287.25 279.484 286.28 278.514C285.309 277.544 284.764 276.227 284.764 274.855V272.691H279.838V277.617H277.673C276.301 277.617 274.985 278.162 274.014 279.133C273.044 280.103 272.499 281.419 272.499 282.792C272.499 284.164 273.044 285.48 274.014 286.45C274.985 287.421 276.301 287.966 277.673 287.966Z" fill="#277BC0"/>
<path opacity="0.5" d="M277.673 287.966H279.838V292.904H300.04V287.966H301.922C303.295 287.966 304.611 287.421 305.581 286.45C306.552 285.48 307.097 284.164 307.097 282.792C307.097 281.419 306.552 280.103 305.581 279.133C304.611 278.162 303.295 277.617 301.922 277.617H300.04V272.691H295.113V274.855C295.113 276.227 294.568 277.544 293.598 278.514C292.627 279.484 291.311 280.03 289.939 280.03C288.566 280.03 287.25 279.484 286.28 278.514C285.309 277.544 284.764 276.227 284.764 274.855V272.691H279.838V277.617H277.673C276.301 277.617 274.985 278.162 274.014 279.133C273.044 280.103 272.499 281.419 272.499 282.792C272.499 284.164 273.044 285.48 274.014 286.45C274.985 287.421 276.301 287.966 277.673 287.966Z" fill="white"/>
<path d="M313.771 287.966H311.606V292.904H331.819V287.966H333.691C335.063 287.966 336.379 287.421 337.35 286.45C338.32 285.48 338.865 284.164 338.865 282.792C338.865 281.419 338.32 280.103 337.35 279.133C336.379 278.162 335.063 277.617 333.691 277.617H331.819V272.691H326.927V270.526C326.927 269.154 326.381 267.838 325.411 266.867C324.441 265.897 323.125 265.352 321.752 265.352C320.38 265.352 319.064 265.897 318.093 266.867C317.123 267.838 316.578 269.154 316.578 270.526V272.691H311.651V277.617H313.816C315.188 277.617 316.504 278.162 317.475 279.133C318.445 280.103 318.99 281.419 318.99 282.792C318.99 284.164 318.445 285.48 317.475 286.45C316.504 287.421 315.188 287.966 313.816 287.966H313.771Z" fill="#277BC0"/>
<path d="M262.116 277.617H264.281V272.691H244.068V277.617H242.185C240.813 277.617 239.496 278.162 238.526 279.133C237.556 280.103 237.01 281.419 237.01 282.792C237.01 284.164 237.556 285.48 238.526 286.45C239.496 287.421 240.813 287.966 242.185 287.966H244.068V292.904H264.281V287.966H262.116C260.744 287.966 259.428 287.421 258.457 286.45C257.487 285.48 256.942 284.164 256.942 282.792C256.942 281.419 257.487 280.103 258.457 279.133C259.428 278.162 260.744 277.617 262.116 277.617Z" fill="#277BC0"/>
<path opacity="0.3" d="M262.116 277.617H264.281V272.691H244.068V277.617H242.185C240.813 277.617 239.496 278.162 238.526 279.133C237.556 280.103 237.01 281.419 237.01 282.792C237.01 284.164 237.556 285.48 238.526 286.45C239.496 287.421 240.813 287.966 242.185 287.966H244.068V292.904H264.281V287.966H262.116C260.744 287.966 259.428 287.421 258.457 286.45C257.487 285.48 256.942 284.164 256.942 282.792C256.942 281.419 257.487 280.103 258.457 279.133C259.428 278.162 260.744 277.617 262.116 277.617Z" fill="black"/>
<path d="M169.111 383.575L170.881 403.811H180.069L181.005 383.575H169.111Z" fill="#B97964"/>
<path d="M181.23 403.089C181.186 403.081 181.145 403.059 181.112 403.027C181.08 402.995 181.058 402.954 181.05 402.909C181.039 402.864 181.043 402.816 181.061 402.774C181.08 402.731 181.111 402.695 181.152 402.672C181.298 402.582 184.624 400.609 186.236 401.015C186.54 401.09 186.802 401.28 186.969 401.545C187.07 401.69 187.124 401.864 187.124 402.041C187.124 402.218 187.07 402.391 186.969 402.537C186.155 403.13 185.153 403.406 184.15 403.315C183.172 403.322 182.196 403.247 181.23 403.089ZM181.963 402.774C183.767 402.965 186.191 402.909 186.63 402.266C186.63 402.199 186.743 402.052 186.574 401.77C186.526 401.689 186.461 401.62 186.383 401.567C186.305 401.514 186.216 401.48 186.123 401.466C185.98 401.425 185.832 401.406 185.683 401.41C184.368 401.624 183.106 402.087 181.963 402.774Z" fill="#277BC0"/>
<path d="M181.118 403.078C181.082 403.058 181.053 403.028 181.033 402.992C181.013 402.956 181.003 402.916 181.005 402.875C181.005 402.751 181.23 400.158 182.436 399.121C182.608 398.971 182.809 398.857 183.026 398.787C183.243 398.718 183.472 398.693 183.699 398.715C184.33 398.715 184.533 399.076 184.556 399.335C184.781 400.463 182.504 402.548 181.366 403.078H181.264C181.217 403.094 181.165 403.094 181.118 403.078ZM183.553 399.144C183.266 399.152 182.991 399.26 182.775 399.448C182.066 400.289 181.637 401.329 181.546 402.424C182.73 401.691 184.218 400.034 184.15 399.38C184.15 399.324 184.15 399.166 183.688 399.132L183.553 399.144Z" fill="#277BC0"/>
<path d="M180.227 401.759L169.72 401.939C169.528 401.943 169.343 402.012 169.196 402.135C169.048 402.258 168.947 402.428 168.908 402.616L167.15 411.195C167.112 411.379 167.112 411.568 167.148 411.752C167.185 411.936 167.258 412.111 167.363 412.266C167.468 412.421 167.603 412.554 167.76 412.657C167.917 412.759 168.093 412.83 168.277 412.863H168.581C172.369 412.728 175.729 412.457 180.441 412.39C186.01 412.3 184.612 412.987 191.151 412.965C195.096 412.965 195.739 408.455 194.07 408.264C186.405 407.429 185.57 405.141 182.572 402.447C181.901 401.938 181.066 401.693 180.227 401.759Z" fill="#0D0D0C"/>
<path d="M196.652 207.023L181.625 391.083H169.1C169.1 391.083 162.257 342.924 165.481 303.467C165.651 301.415 165.842 299.397 166.068 297.402C166.4 294.488 166.4 291.545 166.068 288.631C165.876 286.918 165.639 284.787 165.38 282.352C163.937 268.948 161.784 246.582 162.212 236.424C162.212 236.424 155.843 222.017 160.904 201.984H196.641L196.652 207.023Z" fill="#277BC0"/>
<path d="M167.33 387.645L167.86 391.083L166.71 393.902H182.572L182.155 391.083L183.508 387.645H167.33Z" fill="#277BC0"/>
<path opacity="0.5" d="M167.33 387.645L167.86 391.083L166.71 393.902H182.572L182.155 391.083L183.508 387.645H167.33Z" fill="white"/>
<path opacity="0.1" d="M171.039 217.519L161.074 233.11C161.384 234.258 161.76 235.388 162.201 236.492C161.885 243.989 162.979 257.562 164.151 269.275C175.323 237.845 177.781 217.564 177.781 217.564L171.039 217.519Z" fill="black"/>
<path d="M115.586 383.045L108.438 403.811H100.558L103.264 382.425L115.586 383.045Z" fill="#B97964"/>
<path d="M110.952 403.089C110.907 403.079 110.866 403.057 110.832 403.025C110.798 402.994 110.774 402.953 110.761 402.909C110.754 402.863 110.761 402.816 110.781 402.774C110.801 402.731 110.833 402.696 110.873 402.672C111.02 402.582 114.346 400.609 115.958 401.015C116.261 401.09 116.524 401.28 116.69 401.545C116.79 401.691 116.844 401.864 116.844 402.041C116.844 402.218 116.79 402.391 116.69 402.537C115.877 403.13 114.875 403.406 113.872 403.315C112.894 403.322 111.917 403.247 110.952 403.089ZM111.685 402.774C113.478 402.965 115.913 402.909 116.341 402.266C116.409 402.199 116.465 402.052 116.341 401.77C116.292 401.688 116.225 401.618 116.145 401.565C116.065 401.512 115.974 401.478 115.879 401.466C115.74 401.424 115.595 401.405 115.45 401.41C114.119 401.617 112.84 402.08 111.685 402.774Z" fill="#277BC0"/>
<path d="M110.828 403.078C110.796 403.055 110.769 403.025 110.752 402.99C110.734 402.954 110.725 402.915 110.727 402.875C110.727 402.751 110.952 400.158 112.158 399.121C112.33 398.971 112.531 398.857 112.748 398.787C112.965 398.718 113.194 398.693 113.421 398.715C114.052 398.715 114.255 399.076 114.278 399.335C114.503 400.463 112.226 402.548 111.087 403.078H110.986C110.935 403.094 110.88 403.094 110.828 403.078ZM113.274 399.144C112.987 399.15 112.712 399.258 112.497 399.448C111.788 400.289 111.359 401.329 111.268 402.424C112.395 401.691 113.94 400.034 113.861 399.38C113.861 399.324 113.861 399.166 113.41 399.132L113.274 399.144Z" fill="#277BC0"/>
<path d="M109.949 401.759L99.4423 401.939C99.2503 401.943 99.0653 402.012 98.9177 402.135C98.7702 402.258 98.6689 402.428 98.6306 402.616L96.8719 411.195C96.8344 411.379 96.8339 411.568 96.8704 411.752C96.907 411.936 96.9799 412.111 97.0849 412.266C97.1899 412.421 97.3249 412.554 97.4819 412.657C97.6389 412.759 97.8148 412.83 97.9993 412.863H98.3036C102.08 412.728 105.451 412.457 110.163 412.39C115.732 412.3 114.334 412.987 120.873 412.965C124.819 412.965 125.461 408.455 123.781 408.264C116.116 407.43 115.281 405.141 112.283 402.447C111.617 401.936 110.785 401.691 109.949 401.759Z" fill="#0D0D0C"/>
<path d="M183.507 202.007L114.019 391.083H101.46C101.46 391.083 104.628 343.138 120.399 306.206C121.166 304.436 121.944 302.689 122.767 300.964C124.517 297.234 125.732 293.276 126.374 289.206C126.51 288.304 126.679 287.335 126.848 286.298C129.102 272.973 135.213 249.535 137.197 236.447C138.549 227.575 137.197 218.917 147.219 202.007H183.507Z" fill="#277BC0"/>
<path d="M99.4084 387.645L99.927 391.083L98.7771 393.902H114.639L115.473 391.083L116.837 387.645H99.4084Z" fill="#277BC0"/>
<path opacity="0.5" d="M99.4084 387.645L99.927 391.083L98.7771 393.902H114.639L115.473 391.083L116.837 387.645H99.4084Z" fill="white"/>
<path d="M160.634 94.6397C156.395 97.8977 156.125 104.38 156.192 108.224C156.26 112.068 156.497 108.224 154.174 114.988C151.852 121.752 160.33 127.873 163.689 127.468C173.835 126.216 178.885 127.761 185.593 129.328C192.301 130.895 200.158 123.229 199.29 115.45C198.298 106.567 195.074 102.666 197.34 99.8141C199.606 96.962 204.228 86.9062 196.055 84.8431C188.896 83.0507 192.876 78.857 182.065 78.7443C172.347 78.6879 161.209 80.796 160.634 94.6397Z" fill="#0D0D0C"/>
<path d="M170.228 112.564C170.881 118.562 171.107 129.474 166.631 133.037C170.973 137.06 175.82 140.501 181.05 143.273C188.073 138.425 184.951 134.626 184.951 134.626C178.525 132.439 179.111 127.614 180.588 123.139L170.228 112.564Z" fill="#B97964"/>
<path opacity="0.2" d="M174.433 116.927L180.599 123.184C180.226 124.225 179.944 125.296 179.754 126.385C177.285 125.799 173.688 123.229 173.655 120.568C173.698 119.318 173.961 118.086 174.433 116.927Z" fill="black"/>
<path d="M164.907 103.241C167.42 112.824 168.289 116.927 174.139 120.94C182.978 126.972 194.195 121.808 194.6 111.674C194.973 102.554 190.824 88.4393 180.576 86.444C178.321 86.0006 175.989 86.1395 173.802 86.8474C171.615 87.5553 169.644 88.809 168.076 90.49C166.508 92.171 165.394 94.224 164.839 96.455C164.285 98.6861 164.308 101.022 164.907 103.241Z" fill="#B97964"/>
<path d="M164.129 111.358C164.571 112.196 165.174 112.94 165.903 113.545C166.632 114.151 167.473 114.606 168.379 114.887C170.803 115.619 172.077 113.466 171.434 111.144C170.87 109.058 168.92 106.161 166.462 106.443C166.037 106.505 165.629 106.65 165.26 106.87C164.891 107.09 164.57 107.381 164.313 107.725C164.057 108.07 163.87 108.461 163.765 108.878C163.66 109.294 163.638 109.727 163.7 110.152C163.758 110.579 163.904 110.99 164.129 111.358Z" fill="#EBB376"/>
<path d="M169.427 84.0089C167.714 86.9513 171.986 92.3963 180.96 91.9002C187.724 91.5057 196.213 98.777 195.525 90.9195C194.95 83.7496 177.939 80.3225 169.427 84.0089Z" fill="#0D0D0C"/>
<path d="M187.667 105.71C188.723 107.382 190.005 108.899 191.478 110.219C191.137 110.594 190.718 110.89 190.251 111.085C189.783 111.28 189.278 111.369 188.772 111.347L187.667 105.71Z" fill="#A24E3F"/>
<path d="M176.484 102.441C176.418 102.457 176.348 102.457 176.281 102.441C176.194 102.385 176.131 102.298 176.106 102.197C176.081 102.097 176.095 101.99 176.146 101.9C176.516 101.269 177.031 100.735 177.649 100.343C178.266 99.9505 178.969 99.7113 179.697 99.645C179.8 99.645 179.899 99.685 179.972 99.7566C180.046 99.8281 180.089 99.9256 180.092 100.028C180.095 100.079 180.088 100.129 180.071 100.177C180.055 100.224 180.029 100.268 179.996 100.306C179.962 100.344 179.921 100.375 179.876 100.397C179.831 100.418 179.781 100.431 179.731 100.434C179.126 100.5 178.545 100.709 178.038 101.044C177.53 101.38 177.109 101.831 176.811 102.362C176.766 102.399 176.713 102.425 176.657 102.439C176.6 102.453 176.541 102.453 176.484 102.441Z" fill="#0D0D0C"/>
<path d="M193.236 99.2843C193.174 99.3005 193.108 99.3005 193.045 99.2843C192.522 98.9771 191.935 98.7966 191.33 98.7575C190.725 98.7183 190.119 98.8215 189.561 99.0588C189.47 99.1072 189.363 99.1178 189.264 99.0882C189.165 99.0587 189.082 98.9915 189.031 98.901C188.984 98.8052 188.977 98.6947 189.011 98.5934C189.044 98.4921 189.117 98.4082 189.212 98.3599C189.885 98.0606 190.619 97.9259 191.354 97.9671C192.089 98.0083 192.804 98.2241 193.439 98.5966C193.519 98.6382 193.583 98.7059 193.619 98.7885C193.655 98.8711 193.662 98.9635 193.638 99.0505C193.614 99.1374 193.561 99.2136 193.488 99.2664C193.415 99.3192 193.326 99.3454 193.236 99.3407V99.2843Z" fill="#0D0D0C"/>
<path d="M246.277 135.179L251.745 129.068L260.989 126.25L267.054 123.432C267.325 123.307 267.623 123.256 267.92 123.284C268.216 123.312 268.5 123.418 268.742 123.59C268.985 123.763 269.177 123.997 269.301 124.268C269.424 124.539 269.473 124.838 269.444 125.134L268.677 132.507C268.654 132.732 268.585 132.949 268.476 133.147C268.367 133.345 268.219 133.519 268.041 133.659C267.864 133.799 267.66 133.901 267.442 133.961C267.224 134.021 266.996 134.036 266.772 134.006L255.815 132.518L250.809 140.815L246.277 135.179Z" fill="#B97964"/>
<path d="M197.532 133.397L226.076 152.235L247.371 132.112L254.259 137.219C254.259 137.219 236.098 166.857 227.958 166.597C219.819 166.338 203.157 157.026 196.652 151.469C193.067 148.425 192.932 143.126 194.995 134.412C195.056 134.151 195.18 133.909 195.355 133.706C195.529 133.503 195.751 133.345 196 133.245C196.248 133.146 196.517 133.107 196.784 133.134C197.051 133.16 197.307 133.251 197.532 133.397Z" fill="#0D0D0C"/>
<path opacity="0.5" d="M198.873 137.614L195.378 135.923L193.687 142.484C193.473 146.61 194.353 149.496 196.652 151.502C203.617 156.933 211.328 161.329 219.548 164.557C205.502 156.711 198.873 137.614 198.873 137.614Z" fill="black"/>
<path d="M145.313 203.574H197.701C197.701 203.574 198.738 176.338 203.337 166.947C207.204 159.055 199.786 139.665 197.374 133.803C197.169 133.301 196.814 132.874 196.359 132.58C195.903 132.285 195.368 132.138 194.826 132.157L148.605 133.679C148.293 133.69 147.987 133.77 147.71 133.914C147.433 134.059 147.193 134.264 147.005 134.513C146.818 134.763 146.689 135.052 146.629 135.359C146.568 135.665 146.577 135.981 146.655 136.283C148.56 143.386 152.754 165.797 145.313 203.574Z" fill="#0D0D0C"/>
<path d="M133.522 210.045L134.254 220.484L140.725 224.993V228.014L140.894 228.398C141.078 228.805 141.163 229.25 141.143 229.697C141.123 230.144 140.998 230.579 140.779 230.969C140.559 231.358 140.251 231.691 139.88 231.939C139.508 232.188 139.083 232.346 138.64 232.4L132.845 233.121C132.462 233.168 132.072 233.136 131.701 233.028C131.33 232.92 130.985 232.738 130.687 232.492C130.388 232.246 130.143 231.943 129.966 231.599C129.788 231.256 129.683 230.88 129.655 230.495L129.035 222.378L126.014 210.067L133.522 210.045Z" fill="#B97964"/>
<path d="M163.204 132.935L163.779 131.56C164.038 130.893 164.038 130.153 163.779 129.486L163.306 128.2C163.218 128.007 163.187 127.792 163.217 127.582C163.246 127.372 163.334 127.174 163.47 127.011C163.607 126.849 163.787 126.728 163.989 126.663C164.191 126.598 164.408 126.592 164.613 126.645C169.393 127.535 181.219 129.474 184.195 127.4C186.923 125.506 185.695 128.178 184.815 129.779C184.638 130.102 184.561 130.472 184.595 130.84C184.629 131.207 184.773 131.556 185.007 131.842L186.596 133.769C186.596 133.769 188.299 138.087 164.05 134.513C163.879 134.486 163.717 134.419 163.576 134.318C163.435 134.218 163.319 134.086 163.237 133.933C163.155 133.781 163.11 133.611 163.104 133.438C163.099 133.265 163.133 133.093 163.204 132.935Z" fill="#0D0D0C"/>
<path opacity="0.2" d="M163.204 132.935L163.779 131.56C164.038 130.893 164.038 130.153 163.779 129.486L163.306 128.2C163.218 128.007 163.187 127.792 163.217 127.582C163.246 127.372 163.334 127.174 163.47 127.011C163.607 126.849 163.787 126.728 163.989 126.663C164.191 126.598 164.408 126.592 164.613 126.645C169.393 127.535 181.219 129.474 184.195 127.4C186.923 125.506 185.695 128.178 184.815 129.779C184.638 130.102 184.561 130.472 184.595 130.84C184.629 131.207 184.773 131.556 185.007 131.842L186.596 133.769C186.596 133.769 188.299 138.087 164.05 134.513C163.879 134.486 163.717 134.419 163.576 134.318C163.435 134.218 163.319 134.086 163.237 133.933C163.155 133.781 163.11 133.611 163.104 133.438C163.099 133.265 163.133 133.093 163.204 132.935Z" fill="black"/>
<path opacity="0.5" d="M149.394 170.881C154.264 153.633 151.649 144.953 151.649 144.953H148.38C149.519 153.568 149.862 162.27 149.406 170.949L149.394 170.881Z" fill="black"/>
<path d="M148.436 135.494C148.274 135.284 148.066 135.113 147.827 134.996C147.589 134.879 147.327 134.818 147.061 134.818C146.795 134.818 146.533 134.879 146.295 134.996C146.056 135.113 145.848 135.284 145.686 135.494C140.229 142.574 119.982 169.371 119.441 178.22C118.81 188.445 127.164 219.931 127.164 219.931L134.672 218.263L133.296 178.806C133.296 178.806 146.046 161.423 149.372 155.471C151.875 150.961 154.975 144.254 148.436 135.494Z" fill="#0D0D0C"/>
<path d="M197.385 205.614H144.637L145.325 201.939H197.825L197.385 205.614Z" fill="#277BC0"/>
<path d="M171.671 205.614V201.939H151.886L151.052 205.614H171.671Z" fill="#277BC0"/>
<path d="M186.112 201.939H174.872V205.614H186.112V201.939Z" fill="#277BC0"/>
<path d="M148.921 201.939H145.325L144.637 205.614H148.166L148.921 201.939Z" fill="#277BC0"/>
<path d="M189.381 201.939V205.614H197.385L197.825 201.939H189.381Z" fill="#277BC0"/>
<g opacity="0.7">
<path d="M171.671 205.614V201.939H151.886L151.052 205.614H171.671Z" fill="white"/>
<path d="M186.112 201.939H174.872V205.614H186.112V201.939Z" fill="white"/>
<path d="M148.921 201.939H145.325L144.637 205.614H148.166L148.921 201.939Z" fill="white"/>
<path d="M189.381 201.939V205.614H197.385L197.824 201.939H189.381Z" fill="white"/>
</g>
<path d="M184.759 113.917C185.22 113.925 185.681 113.887 186.134 113.804C186.196 113.791 186.251 113.754 186.286 113.702C186.322 113.649 186.336 113.585 186.326 113.522C186.315 113.461 186.281 113.405 186.231 113.368C186.18 113.33 186.118 113.313 186.055 113.32C185.058 113.515 184.028 113.474 183.049 113.2C182.071 112.926 181.17 112.427 180.419 111.741C180.373 111.707 180.316 111.69 180.259 111.692C180.201 111.695 180.146 111.718 180.104 111.756C180.061 111.795 180.033 111.847 180.025 111.904C180.016 111.961 180.028 112.019 180.058 112.068C181.327 113.268 183.012 113.931 184.759 113.917Z" fill="#0D0D0C"/>
<path d="M183.26 103.534C183.221 103.531 183.183 103.535 183.146 103.547C183.109 103.558 183.075 103.577 183.045 103.602C182.778 103.847 182.458 104.026 182.11 104.126C181.762 104.226 181.395 104.243 181.039 104.177C180.966 104.159 180.888 104.171 180.823 104.208C180.758 104.246 180.71 104.308 180.689 104.38C180.668 104.452 180.677 104.529 180.713 104.594C180.749 104.66 180.809 104.708 180.881 104.729C181.329 104.825 181.793 104.811 182.235 104.69C182.676 104.568 183.082 104.342 183.417 104.03C183.445 104.004 183.466 103.973 183.481 103.938C183.496 103.903 183.504 103.865 183.504 103.827C183.504 103.79 183.496 103.752 183.481 103.717C183.466 103.682 183.445 103.651 183.417 103.624C183.377 103.577 183.321 103.545 183.26 103.534Z" fill="#0D0D0C"/>
<path d="M192.391 103.095C192.352 103.091 192.314 103.096 192.277 103.107C192.24 103.119 192.206 103.138 192.177 103.162C191.919 103.419 191.603 103.609 191.255 103.717C190.908 103.825 190.539 103.848 190.181 103.782C190.145 103.773 190.107 103.77 190.07 103.775C190.033 103.78 189.997 103.793 189.965 103.811C189.932 103.83 189.904 103.855 189.881 103.885C189.858 103.915 189.841 103.949 189.832 103.985C189.822 104.022 189.82 104.059 189.825 104.097C189.83 104.134 189.842 104.17 189.861 104.202C189.88 104.234 189.905 104.263 189.935 104.286C189.964 104.308 189.998 104.325 190.035 104.335C190.483 104.422 190.945 104.4 191.383 104.27C191.82 104.141 192.22 103.908 192.549 103.591C192.576 103.565 192.597 103.535 192.612 103.501C192.627 103.467 192.634 103.43 192.634 103.393C192.634 103.356 192.627 103.32 192.612 103.286C192.597 103.252 192.576 103.221 192.549 103.196C192.508 103.147 192.453 103.112 192.391 103.095Z" fill="#0D0D0C"/>
<path d="M174.895 88.5408C177.602 90.738 180.648 92.4817 183.913 93.704C184.003 93.7352 184.079 93.797 184.128 93.8786C184.177 93.9602 184.196 94.0564 184.181 94.1504C184.166 94.2444 184.119 94.3302 184.047 94.3929C183.976 94.4555 183.885 94.491 183.789 94.4931C180.25 94.5608 174.511 93.8618 174.895 88.5408Z" fill="#0D0D0C"/>
<path d="M192.244 99.9381C189.573 100.197 188.141 101.392 188.13 103.32L187.273 103.41C187.205 102.959 187.03 102.53 186.761 102.161C186.492 101.792 186.138 101.493 185.728 101.291C184.741 100.868 183.656 100.727 182.594 100.885C181.519 100.935 180.478 101.278 179.584 101.877C179.361 102.055 179.163 102.264 178.998 102.497L169.653 109.566L170.149 110.219C170.149 110.219 178.446 104.414 178.48 104.684C178.598 105.781 179.114 106.796 179.931 107.538C180.747 108.279 181.807 108.696 182.91 108.709C183.056 108.72 183.203 108.72 183.35 108.709C184.455 108.607 185.481 108.091 186.223 107.266C186.965 106.441 187.368 105.366 187.352 104.256L188.208 104.166C188.41 105.179 188.953 106.092 189.747 106.753C190.541 107.414 191.538 107.782 192.571 107.796H193C194.173 107.67 195.25 107.09 196 106.18C196.75 105.269 197.114 104.101 197.013 102.926C196.799 100.693 195.108 99.6563 192.244 99.9381ZM185.728 106.544C185.427 106.916 185.054 107.223 184.632 107.447C184.21 107.672 183.747 107.81 183.271 107.852C182.795 107.899 182.314 107.851 181.857 107.712C181.399 107.573 180.973 107.345 180.604 107.042C180.234 106.738 179.928 106.365 179.703 105.943C179.478 105.521 179.338 105.059 179.291 104.583C179.223 104.199 179.262 103.803 179.403 103.439C179.544 103.075 179.782 102.757 180.092 102.52C180.845 102.013 181.722 101.721 182.628 101.674C182.91 101.674 183.192 101.674 183.451 101.674C184.091 101.651 184.727 101.775 185.311 102.035C185.659 102.211 185.952 102.478 186.161 102.808C186.369 103.137 186.484 103.517 186.495 103.906C186.594 104.852 186.318 105.799 185.728 106.544ZM195.378 105.609C195.076 105.979 194.703 106.285 194.281 106.51C193.859 106.734 193.397 106.873 192.921 106.916C192.445 106.963 191.964 106.915 191.507 106.776C191.049 106.637 190.623 106.41 190.254 106.106C189.884 105.802 189.578 105.429 189.353 105.007C189.128 104.585 188.988 104.123 188.941 103.647C188.941 103.016 188.693 101.099 192.323 100.75C192.597 100.734 192.872 100.734 193.146 100.75C193.789 100.728 194.429 100.852 195.018 101.111C195.354 101.295 195.635 101.566 195.833 101.894C196.031 102.223 196.139 102.598 196.145 102.982C196.239 103.924 195.965 104.865 195.378 105.609Z" fill="#277BC0"/>
<path d="M174.342 86.1734C179.021 89.7583 175.909 96.3194 173.655 99.2392C171.4 102.159 167.917 104.943 170.611 109.295C173.305 113.646 175.12 125.641 166.553 123.544C157.985 121.448 158.368 107.119 160.86 100.502C163.351 93.8844 168.762 81.9121 174.342 86.1734Z" fill="#0D0D0C"/>
<path d="M273.762 114.402H271.687V108.506H266.964V109.408C266.964 110.72 266.443 111.979 265.514 112.907C264.586 113.835 263.327 114.357 262.015 114.357C260.702 114.357 259.444 113.835 258.515 112.907C257.587 111.979 257.066 110.72 257.066 109.408V108.506H252.342V114.402H250.55C249.237 114.402 247.979 114.923 247.05 115.851C246.122 116.779 245.601 118.038 245.601 119.351C245.601 120.663 246.122 121.922 247.05 122.85C247.979 123.778 249.237 124.3 250.55 124.3H252.342V130.196H257.032V129.294C257.032 127.981 257.554 126.723 258.482 125.794C259.41 124.866 260.669 124.345 261.981 124.345C263.294 124.345 264.552 124.866 265.481 125.794C266.409 126.723 266.93 127.981 266.93 129.294V130.196H271.687V124.3H273.762C275.074 124.3 276.333 123.778 277.261 122.85C278.189 121.922 278.711 120.663 278.711 119.351C278.711 118.038 278.189 116.779 277.261 115.851C276.333 114.923 275.074 114.402 273.762 114.402Z" fill="#277BC0"/>
<path opacity="0.4" d="M273.762 114.402H271.687V108.506H266.964V109.408C266.964 110.72 266.443 111.979 265.514 112.907C264.586 113.835 263.327 114.357 262.015 114.357C260.702 114.357 259.444 113.835 258.515 112.907C257.587 111.979 257.066 110.72 257.066 109.408V108.506H252.342V114.402H250.55C249.237 114.402 247.979 114.923 247.05 115.851C246.122 116.779 245.601 118.038 245.601 119.351C245.601 120.663 246.122 121.922 247.05 122.85C247.979 123.778 249.237 124.3 250.55 124.3H252.342V130.196H257.032V129.294C257.032 127.981 257.554 126.723 258.482 125.794C259.41 124.866 260.669 124.345 261.981 124.345C263.294 124.345 264.552 124.866 265.481 125.794C266.409 126.723 266.93 127.981 266.93 129.294V130.196H271.687V124.3H273.762C275.074 124.3 276.333 123.778 277.261 122.85C278.189 121.922 278.711 120.663 278.711 119.351C278.711 118.038 278.189 116.779 277.261 115.851C276.333 114.923 275.074 114.402 273.762 114.402Z" fill="black"/>
<defs>
<filter id="filter0_d_5_260" x="83.2623" y="241.61" width="228.482" height="148.701" filterUnits="userSpaceOnUse" color-interpolation-filters="sRGB">
<feFlood flood-opacity="0" result="BackgroundImageFix"/>
<feColorMatrix in="SourceAlpha" type="matrix" values="0 0 0 0 0 0 0 0 0 0 0 0 0 0 0 0 0 0 127 0" result="hardAlpha"/>
<feOffset dy="6.71032"/>
<feGaussianBlur stdDeviation="3.35516"/>
<feComposite in2="hardAlpha" operator="out"/>
<feColorMatrix type="matrix" values="0 0 0 0 0 0 0 0 0 0 0 0 0 0 0 0 0 0 0.25 0"/>
<feBlend mode="normal" in2="BackgroundImageFix" result="effect1_dropShadow_5_260"/>
<feBlend mode="normal" in="SourceGraphic" in2="effect1_dropShadow_5_260" result="shape"/>
</filter>
<filter id="filter1_d_5_260" x="194.282" y="258.892" width="103.9" height="111.555" filterUnits="userSpaceOnUse" color-interpolation-filters="sRGB">
<feFlood flood-opacity="0" result="BackgroundImageFix"/>
<feColorMatrix in="SourceAlpha" type="matrix" values="0 0 0 0 0 0 0 0 0 0 0 0 0 0 0 0 0 0 127 0" result="hardAlpha"/>
<feOffset dy="6.71032"/>
<feGaussianBlur stdDeviation="3.35516"/>
<feComposite in2="hardAlpha" operator="out"/>
<feColorMatrix type="matrix" values="0 0 0 0 0 0 0 0 0 0 0 0 0 0 0 0 0 0 0.25 0"/>
<feBlend mode="normal" in2="BackgroundImageFix" result="effect1_dropShadow_5_260"/>
<feBlend mode="normal" in="SourceGraphic" in2="effect1_dropShadow_5_260" result="shape"/>
</filter>
<filter id="filter2_d_5_260" x="23.4572" y="398.23" width="505.885" height="42.1902" filterUnits="userSpaceOnUse" color-interpolation-filters="sRGB">
<feFlood flood-opacity="0" result="BackgroundImageFix"/>
<feColorMatrix in="SourceAlpha" type="matrix" values="0 0 0 0 0 0 0 0 0 0 0 0 0 0 0 0 0 0 127 0" result="hardAlpha"/>
<feOffset dy="6.71032"/>
<feGaussianBlur stdDeviation="3.35516"/>
<feComposite in2="hardAlpha" operator="out"/>
<feColorMatrix type="matrix" values="0 0 0 0 0 0 0 0 0 0 0 0 0 0 0 0 0 0 0.25 0"/>
<feBlend mode="normal" in2="BackgroundImageFix" result="effect1_dropShadow_5_260"/>
<feBlend mode="normal" in="SourceGraphic" in2="effect1_dropShadow_5_260" result="shape"/>
</filter>
</defs>
</svg>
